<mxfile host="app.diagrams.net" agent="Mozilla/5.0 (X11; Linux x86_64; rv:139.0) Gecko/20100101 Firefox/139.0" version="27.2.0" pages="3">
  <diagram name="Page-1" id="-lWzbQVVh6VAtObtMN5t">
    <mxGraphModel dx="1453" dy="503" grid="1" gridSize="10" guides="1" tooltips="1" connect="1" arrows="1" fold="1" page="1" pageScale="1" pageWidth="850" pageHeight="1100" math="0" shadow="0">
      <root>
        <mxCell id="0" />
        <mxCell id="1" parent="0" />
        <mxCell id="biBIcMgOvQUYCyqdAZqE-1" value="&lt;font&gt;Socio&lt;/font&gt;" style="whiteSpace=wrap;html=1;align=center;" parent="1" vertex="1">
          <mxGeometry x="260" y="40" width="80" height="30" as="geometry" />
        </mxCell>
        <mxCell id="biBIcMgOvQUYCyqdAZqE-2" value="" style="endArrow=none;html=1;rounded=0;exitX=0.5;exitY=1;exitDx=0;exitDy=0;" parent="1" source="biBIcMgOvQUYCyqdAZqE-1" target="biBIcMgOvQUYCyqdAZqE-3" edge="1">
          <mxGeometry relative="1" as="geometry">
            <mxPoint x="220" y="250" as="sourcePoint" />
            <mxPoint x="320" y="160" as="targetPoint" />
          </mxGeometry>
        </mxCell>
        <mxCell id="biBIcMgOvQUYCyqdAZqE-3" value="O" style="ellipse;whiteSpace=wrap;html=1;aspect=fixed;" parent="1" vertex="1">
          <mxGeometry x="285" y="100" width="30" height="30" as="geometry" />
        </mxCell>
        <mxCell id="biBIcMgOvQUYCyqdAZqE-5" value="" style="endArrow=none;html=1;rounded=0;entryX=0.252;entryY=1.033;entryDx=0;entryDy=0;entryPerimeter=0;exitX=0.5;exitY=0;exitDx=0;exitDy=0;" parent="1" source="biBIcMgOvQUYCyqdAZqE-6" target="biBIcMgOvQUYCyqdAZqE-3" edge="1">
          <mxGeometry width="50" height="50" relative="1" as="geometry">
            <mxPoint x="250" y="230" as="sourcePoint" />
            <mxPoint x="360" y="190" as="targetPoint" />
          </mxGeometry>
        </mxCell>
        <mxCell id="biBIcMgOvQUYCyqdAZqE-6" value="Revisore" style="rounded=0;whiteSpace=wrap;html=1;" parent="1" vertex="1">
          <mxGeometry x="180" y="180" width="100" height="40" as="geometry" />
        </mxCell>
        <mxCell id="biBIcMgOvQUYCyqdAZqE-7" value="Osservatore" style="rounded=0;whiteSpace=wrap;html=1;" parent="1" vertex="1">
          <mxGeometry x="335" y="180" width="90" height="40" as="geometry" />
        </mxCell>
        <mxCell id="biBIcMgOvQUYCyqdAZqE-8" value="" style="endArrow=none;html=1;rounded=0;entryX=0.5;entryY=0;entryDx=0;entryDy=0;exitX=1;exitY=1;exitDx=0;exitDy=0;" parent="1" source="biBIcMgOvQUYCyqdAZqE-3" target="biBIcMgOvQUYCyqdAZqE-7" edge="1">
          <mxGeometry width="50" height="50" relative="1" as="geometry">
            <mxPoint x="310" y="240" as="sourcePoint" />
            <mxPoint x="360" y="190" as="targetPoint" />
          </mxGeometry>
        </mxCell>
        <mxCell id="biBIcMgOvQUYCyqdAZqE-14" value="revisiona" style="shape=rhombus;perimeter=rhombusPerimeter;whiteSpace=wrap;html=1;align=center;" parent="1" vertex="1">
          <mxGeometry x="195" y="260" width="70" height="47.5" as="geometry" />
        </mxCell>
        <mxCell id="NWJgIK_oHAW2l3-DAgLM-14" value="" style="endArrow=none;html=1;rounded=0;fontSize=12;startSize=8;endSize=8;curved=1;entryX=0.5;entryY=1;entryDx=0;entryDy=0;exitX=0.25;exitY=0;exitDx=0;exitDy=0;" parent="1" source="g17DeLx2RG56kNjT_mN6-2" target="biBIcMgOvQUYCyqdAZqE-14" edge="1">
          <mxGeometry relative="1" as="geometry">
            <mxPoint x="290" y="410" as="sourcePoint" />
            <mxPoint x="630" y="510" as="targetPoint" />
          </mxGeometry>
        </mxCell>
        <mxCell id="NWJgIK_oHAW2l3-DAgLM-15" value="N" style="resizable=0;html=1;whiteSpace=wrap;align=right;verticalAlign=bottom;fontSize=15;" parent="NWJgIK_oHAW2l3-DAgLM-14" connectable="0" vertex="1">
          <mxGeometry x="1" relative="1" as="geometry">
            <mxPoint x="-15" y="20" as="offset" />
          </mxGeometry>
        </mxCell>
        <mxCell id="NWJgIK_oHAW2l3-DAgLM-20" value="Esemplare" style="shape=ext;margin=3;double=1;whiteSpace=wrap;html=1;align=center;" parent="1" vertex="1">
          <mxGeometry x="590" y="415" width="100" height="40" as="geometry" />
        </mxCell>
        <mxCell id="NWJgIK_oHAW2l3-DAgLM-22" value="Contiene" style="shape=rhombus;double=1;perimeter=rhombusPerimeter;whiteSpace=wrap;html=1;align=center;" parent="1" vertex="1">
          <mxGeometry x="440" y="405" width="80" height="60" as="geometry" />
        </mxCell>
        <mxCell id="NWJgIK_oHAW2l3-DAgLM-34" value="" style="shape=link;html=1;rounded=0;fontSize=12;startSize=8;endSize=8;curved=1;exitX=0.683;exitY=0.106;exitDx=0;exitDy=0;entryX=0.5;entryY=1;entryDx=0;entryDy=0;exitPerimeter=0;" parent="1" source="g17DeLx2RG56kNjT_mN6-2" target="g17DeLx2RG56kNjT_mN6-4" edge="1">
          <mxGeometry relative="1" as="geometry">
            <mxPoint x="340" y="410" as="sourcePoint" />
            <mxPoint x="380" y="310" as="targetPoint" />
          </mxGeometry>
        </mxCell>
        <mxCell id="NWJgIK_oHAW2l3-DAgLM-35" value="N" style="resizable=0;html=1;whiteSpace=wrap;align=right;verticalAlign=bottom;" parent="NWJgIK_oHAW2l3-DAgLM-34" connectable="0" vertex="1">
          <mxGeometry x="1" relative="1" as="geometry">
            <mxPoint x="20" y="20" as="offset" />
          </mxGeometry>
        </mxCell>
        <mxCell id="NWJgIK_oHAW2l3-DAgLM-38" value="" style="shape=link;html=1;rounded=0;fontSize=12;startSize=8;endSize=8;curved=1;exitX=0;exitY=0.5;exitDx=0;exitDy=0;" parent="1" source="NWJgIK_oHAW2l3-DAgLM-20" target="NWJgIK_oHAW2l3-DAgLM-22" edge="1">
          <mxGeometry relative="1" as="geometry">
            <mxPoint x="370" y="590" as="sourcePoint" />
            <mxPoint x="530" y="590" as="targetPoint" />
          </mxGeometry>
        </mxCell>
        <mxCell id="NWJgIK_oHAW2l3-DAgLM-39" value="N" style="resizable=0;html=1;whiteSpace=wrap;align=right;verticalAlign=bottom;" parent="NWJgIK_oHAW2l3-DAgLM-38" connectable="0" vertex="1">
          <mxGeometry x="1" relative="1" as="geometry">
            <mxPoint x="12" y="32" as="offset" />
          </mxGeometry>
        </mxCell>
        <mxCell id="NWJgIK_oHAW2l3-DAgLM-40" value="" style="shape=link;html=1;rounded=0;fontSize=12;startSize=8;endSize=8;curved=1;entryX=0;entryY=0.5;entryDx=0;entryDy=0;exitX=1;exitY=0.5;exitDx=0;exitDy=0;" parent="1" source="g17DeLx2RG56kNjT_mN6-2" target="NWJgIK_oHAW2l3-DAgLM-22" edge="1">
          <mxGeometry relative="1" as="geometry">
            <mxPoint x="380" y="435" as="sourcePoint" />
            <mxPoint x="530" y="590" as="targetPoint" />
          </mxGeometry>
        </mxCell>
        <mxCell id="NWJgIK_oHAW2l3-DAgLM-41" value="1" style="resizable=0;html=1;whiteSpace=wrap;align=right;verticalAlign=bottom;" parent="NWJgIK_oHAW2l3-DAgLM-40" connectable="0" vertex="1">
          <mxGeometry x="1" relative="1" as="geometry">
            <mxPoint y="-10" as="offset" />
          </mxGeometry>
        </mxCell>
        <mxCell id="NWJgIK_oHAW2l3-DAgLM-42" value="Media" style="shape=ext;margin=3;double=1;whiteSpace=wrap;html=1;align=center;" parent="1" vertex="1">
          <mxGeometry x="20" y="270" width="90" height="50" as="geometry" />
        </mxCell>
        <mxCell id="NWJgIK_oHAW2l3-DAgLM-45" value="Possiede" style="shape=rhombus;double=1;perimeter=rhombusPerimeter;whiteSpace=wrap;html=1;align=center;" parent="1" vertex="1">
          <mxGeometry x="100" y="350" width="80" height="50" as="geometry" />
        </mxCell>
        <mxCell id="NWJgIK_oHAW2l3-DAgLM-46" value="" style="shape=link;html=1;rounded=0;fontSize=12;startSize=8;endSize=8;curved=1;exitX=0.75;exitY=1;exitDx=0;exitDy=0;entryX=0.318;entryY=0.187;entryDx=0;entryDy=0;entryPerimeter=0;" parent="1" source="NWJgIK_oHAW2l3-DAgLM-42" target="NWJgIK_oHAW2l3-DAgLM-45" edge="1">
          <mxGeometry relative="1" as="geometry">
            <mxPoint x="-20" y="560" as="sourcePoint" />
            <mxPoint x="140" y="560" as="targetPoint" />
          </mxGeometry>
        </mxCell>
        <mxCell id="NWJgIK_oHAW2l3-DAgLM-47" value="N" style="resizable=0;html=1;whiteSpace=wrap;align=right;verticalAlign=bottom;fontSize=15;" parent="NWJgIK_oHAW2l3-DAgLM-46" connectable="0" vertex="1">
          <mxGeometry x="1" relative="1" as="geometry">
            <mxPoint x="-18" y="7" as="offset" />
          </mxGeometry>
        </mxCell>
        <mxCell id="NWJgIK_oHAW2l3-DAgLM-48" value="" style="endArrow=none;html=1;rounded=0;fontSize=12;startSize=8;endSize=8;curved=1;entryX=1;entryY=1;entryDx=0;entryDy=0;exitX=0;exitY=0.25;exitDx=0;exitDy=0;" parent="1" source="g17DeLx2RG56kNjT_mN6-2" target="NWJgIK_oHAW2l3-DAgLM-45" edge="1">
          <mxGeometry relative="1" as="geometry">
            <mxPoint x="265" y="435" as="sourcePoint" />
            <mxPoint x="140" y="560" as="targetPoint" />
          </mxGeometry>
        </mxCell>
        <mxCell id="NWJgIK_oHAW2l3-DAgLM-49" value="1" style="resizable=0;html=1;whiteSpace=wrap;align=right;verticalAlign=bottom;fontSize=15;" parent="NWJgIK_oHAW2l3-DAgLM-48" connectable="0" vertex="1">
          <mxGeometry x="1" relative="1" as="geometry">
            <mxPoint x="25" y="15" as="offset" />
          </mxGeometry>
        </mxCell>
        <mxCell id="NWJgIK_oHAW2l3-DAgLM-50" value="Dispositivi di richiamo" style="shape=ext;margin=3;double=1;whiteSpace=wrap;html=1;align=center;" parent="1" vertex="1">
          <mxGeometry x="-70" y="420" width="110" height="50" as="geometry" />
        </mxCell>
        <mxCell id="NWJgIK_oHAW2l3-DAgLM-55" value="usa" style="shape=rhombus;double=1;perimeter=rhombusPerimeter;whiteSpace=wrap;html=1;align=center;" parent="1" vertex="1">
          <mxGeometry x="90" y="420" width="70" height="50" as="geometry" />
        </mxCell>
        <mxCell id="NWJgIK_oHAW2l3-DAgLM-58" value="" style="endArrow=none;html=1;rounded=0;fontSize=12;startSize=8;endSize=8;curved=1;entryX=1;entryY=0.5;entryDx=0;entryDy=0;exitX=0;exitY=0.75;exitDx=0;exitDy=0;" parent="1" source="g17DeLx2RG56kNjT_mN6-2" target="NWJgIK_oHAW2l3-DAgLM-55" edge="1">
          <mxGeometry relative="1" as="geometry">
            <mxPoint x="265" y="447.5" as="sourcePoint" />
            <mxPoint x="90" y="610" as="targetPoint" />
          </mxGeometry>
        </mxCell>
        <mxCell id="NWJgIK_oHAW2l3-DAgLM-59" value="1" style="resizable=0;html=1;whiteSpace=wrap;align=right;verticalAlign=bottom;" parent="NWJgIK_oHAW2l3-DAgLM-58" connectable="0" vertex="1">
          <mxGeometry x="1" relative="1" as="geometry">
            <mxPoint x="10" y="-5" as="offset" />
          </mxGeometry>
        </mxCell>
        <mxCell id="NWJgIK_oHAW2l3-DAgLM-65" value="Località avvistamento" style="whiteSpace=wrap;html=1;align=center;" parent="1" vertex="1">
          <mxGeometry x="40" y="634.67" width="100" height="40" as="geometry" />
        </mxCell>
        <mxCell id="NWJgIK_oHAW2l3-DAgLM-68" value="avviene in" style="shape=rhombus;perimeter=rhombusPerimeter;whiteSpace=wrap;html=1;align=center;" parent="1" vertex="1">
          <mxGeometry x="50" y="529.67" width="80" height="50" as="geometry" />
        </mxCell>
        <mxCell id="NWJgIK_oHAW2l3-DAgLM-69" value="" style="shape=link;html=1;rounded=0;fontSize=12;startSize=8;endSize=8;curved=1;exitX=0.143;exitY=1.006;exitDx=0;exitDy=0;entryX=1;entryY=0;entryDx=0;entryDy=0;exitPerimeter=0;" parent="1" source="g17DeLx2RG56kNjT_mN6-2" target="NWJgIK_oHAW2l3-DAgLM-68" edge="1">
          <mxGeometry relative="1" as="geometry">
            <mxPoint x="290" y="460" as="sourcePoint" />
            <mxPoint x="390" y="530" as="targetPoint" />
          </mxGeometry>
        </mxCell>
        <mxCell id="NWJgIK_oHAW2l3-DAgLM-70" value="N" style="resizable=0;html=1;whiteSpace=wrap;align=right;verticalAlign=bottom;" parent="NWJgIK_oHAW2l3-DAgLM-69" connectable="0" vertex="1">
          <mxGeometry x="1" relative="1" as="geometry">
            <mxPoint x="4" y="-8" as="offset" />
          </mxGeometry>
        </mxCell>
        <mxCell id="NWJgIK_oHAW2l3-DAgLM-73" value="&amp;nbsp;" style="text;whiteSpace=wrap;html=1;" parent="1" vertex="1">
          <mxGeometry x="200" y="320" width="40" height="40" as="geometry" />
        </mxCell>
        <mxCell id="NWJgIK_oHAW2l3-DAgLM-74" value="appartiene a" style="shape=rhombus;perimeter=rhombusPerimeter;whiteSpace=wrap;html=1;align=center;" parent="1" vertex="1">
          <mxGeometry x="-90" y="629.67" width="90" height="50" as="geometry" />
        </mxCell>
        <mxCell id="NWJgIK_oHAW2l3-DAgLM-75" value="" style="shape=link;html=1;rounded=0;fontSize=12;startSize=8;endSize=8;curved=1;entryX=1;entryY=0.5;entryDx=0;entryDy=0;exitX=0;exitY=0.5;exitDx=0;exitDy=0;" parent="1" source="NWJgIK_oHAW2l3-DAgLM-65" target="NWJgIK_oHAW2l3-DAgLM-74" edge="1">
          <mxGeometry relative="1" as="geometry">
            <mxPoint x="-40" y="579.67" as="sourcePoint" />
            <mxPoint x="120" y="579.67" as="targetPoint" />
          </mxGeometry>
        </mxCell>
        <mxCell id="NWJgIK_oHAW2l3-DAgLM-76" value="N" style="resizable=0;html=1;whiteSpace=wrap;align=right;verticalAlign=bottom;" parent="NWJgIK_oHAW2l3-DAgLM-75" connectable="0" vertex="1">
          <mxGeometry x="1" relative="1" as="geometry">
            <mxPoint x="10" as="offset" />
          </mxGeometry>
        </mxCell>
        <mxCell id="NWJgIK_oHAW2l3-DAgLM-77" value="Regione" style="whiteSpace=wrap;html=1;align=center;" parent="1" vertex="1">
          <mxGeometry x="-210" y="634.67" width="80" height="40" as="geometry" />
        </mxCell>
        <mxCell id="NWJgIK_oHAW2l3-DAgLM-78" value="" style="shape=link;html=1;rounded=0;fontSize=12;startSize=8;endSize=8;curved=1;exitX=1;exitY=0.5;exitDx=0;exitDy=0;entryX=0;entryY=0.5;entryDx=0;entryDy=0;" parent="1" source="NWJgIK_oHAW2l3-DAgLM-77" target="NWJgIK_oHAW2l3-DAgLM-74" edge="1">
          <mxGeometry relative="1" as="geometry">
            <mxPoint x="-40" y="579.67" as="sourcePoint" />
            <mxPoint x="120" y="579.67" as="targetPoint" />
          </mxGeometry>
        </mxCell>
        <mxCell id="NWJgIK_oHAW2l3-DAgLM-79" value="1" style="resizable=0;html=1;whiteSpace=wrap;align=right;verticalAlign=bottom;" parent="NWJgIK_oHAW2l3-DAgLM-78" connectable="0" vertex="1">
          <mxGeometry x="1" relative="1" as="geometry" />
        </mxCell>
        <mxCell id="NWJgIK_oHAW2l3-DAgLM-85" value="" style="shape=link;html=1;rounded=0;fontSize=12;startSize=8;endSize=8;curved=1;entryX=0.5;entryY=1;entryDx=0;entryDy=0;exitX=0.5;exitY=0;exitDx=0;exitDy=0;" parent="1" source="NWJgIK_oHAW2l3-DAgLM-65" target="NWJgIK_oHAW2l3-DAgLM-68" edge="1">
          <mxGeometry relative="1" as="geometry">
            <mxPoint x="70" y="627.67" as="sourcePoint" />
            <mxPoint x="230" y="539.67" as="targetPoint" />
          </mxGeometry>
        </mxCell>
        <mxCell id="NWJgIK_oHAW2l3-DAgLM-86" value="1" style="resizable=0;html=1;whiteSpace=wrap;align=right;verticalAlign=bottom;" parent="NWJgIK_oHAW2l3-DAgLM-85" connectable="0" vertex="1">
          <mxGeometry x="1" relative="1" as="geometry">
            <mxPoint x="20" y="20" as="offset" />
          </mxGeometry>
        </mxCell>
        <mxCell id="NWJgIK_oHAW2l3-DAgLM-87" value="&amp;nbsp;" style="text;whiteSpace=wrap;html=1;" parent="1" vertex="1">
          <mxGeometry x="120" y="300" width="40" height="40" as="geometry" />
        </mxCell>
        <mxCell id="NWJgIK_oHAW2l3-DAgLM-88" value="rappresenta" style="shape=rhombus;perimeter=rhombusPerimeter;whiteSpace=wrap;html=1;align=center;" parent="1" vertex="1">
          <mxGeometry x="595" y="585" width="90" height="50" as="geometry" />
        </mxCell>
        <mxCell id="NWJgIK_oHAW2l3-DAgLM-89" value="Specie" style="whiteSpace=wrap;html=1;align=center;" parent="1" vertex="1">
          <mxGeometry x="600" y="715" width="80" height="40" as="geometry" />
        </mxCell>
        <mxCell id="NWJgIK_oHAW2l3-DAgLM-92" value="Habitat" style="whiteSpace=wrap;html=1;align=center;" parent="1" vertex="1">
          <mxGeometry x="217.5" y="805" width="75" height="30" as="geometry" />
        </mxCell>
        <mxCell id="NWJgIK_oHAW2l3-DAgLM-95" value="&lt;div&gt;è&lt;/div&gt;&lt;div&gt;presente&lt;/div&gt;&lt;div&gt;in&lt;/div&gt;" style="shape=rhombus;perimeter=rhombusPerimeter;whiteSpace=wrap;html=1;align=center;" parent="1" vertex="1">
          <mxGeometry x="55" y="792.99" width="70" height="54.67" as="geometry" />
        </mxCell>
        <mxCell id="NWJgIK_oHAW2l3-DAgLM-98" value="" style="shape=link;html=1;rounded=0;fontSize=12;startSize=8;endSize=8;curved=1;entryX=0.5;entryY=0;entryDx=0;entryDy=0;exitX=0.5;exitY=1;exitDx=0;exitDy=0;" parent="1" source="NWJgIK_oHAW2l3-DAgLM-20" target="NWJgIK_oHAW2l3-DAgLM-88" edge="1">
          <mxGeometry relative="1" as="geometry">
            <mxPoint x="670" y="500" as="sourcePoint" />
            <mxPoint x="420" y="530" as="targetPoint" />
          </mxGeometry>
        </mxCell>
        <mxCell id="NWJgIK_oHAW2l3-DAgLM-99" value="N" style="resizable=0;html=1;whiteSpace=wrap;align=right;verticalAlign=bottom;rotation=-5;" parent="NWJgIK_oHAW2l3-DAgLM-98" connectable="0" vertex="1">
          <mxGeometry x="1" relative="1" as="geometry">
            <mxPoint x="20" as="offset" />
          </mxGeometry>
        </mxCell>
        <mxCell id="NWJgIK_oHAW2l3-DAgLM-103" value="" style="endArrow=none;html=1;rounded=0;fontSize=12;startSize=8;endSize=8;curved=1;entryX=0.5;entryY=1;entryDx=0;entryDy=0;exitX=0.5;exitY=0;exitDx=0;exitDy=0;" parent="1" source="NWJgIK_oHAW2l3-DAgLM-89" target="NWJgIK_oHAW2l3-DAgLM-88" edge="1">
          <mxGeometry relative="1" as="geometry">
            <mxPoint x="230" y="490" as="sourcePoint" />
            <mxPoint x="390" y="490" as="targetPoint" />
          </mxGeometry>
        </mxCell>
        <mxCell id="NWJgIK_oHAW2l3-DAgLM-104" value="1" style="resizable=0;html=1;whiteSpace=wrap;align=right;verticalAlign=bottom;" parent="NWJgIK_oHAW2l3-DAgLM-103" connectable="0" vertex="1">
          <mxGeometry x="1" relative="1" as="geometry">
            <mxPoint x="-10" y="20" as="offset" />
          </mxGeometry>
        </mxCell>
        <mxCell id="NWJgIK_oHAW2l3-DAgLM-108" value="" style="shape=link;html=1;rounded=0;fontSize=12;startSize=8;endSize=8;curved=1;entryX=0;entryY=0.5;entryDx=0;entryDy=0;exitX=1;exitY=0.5;exitDx=0;exitDy=0;" parent="1" source="NWJgIK_oHAW2l3-DAgLM-92" target="yTdTFLldRnQ2-PYzqlcR-5" edge="1">
          <mxGeometry relative="1" as="geometry">
            <mxPoint x="240" y="840" as="sourcePoint" />
            <mxPoint x="435" y="735" as="targetPoint" />
          </mxGeometry>
        </mxCell>
        <mxCell id="NWJgIK_oHAW2l3-DAgLM-109" value="N" style="resizable=0;html=1;whiteSpace=wrap;align=right;verticalAlign=bottom;" parent="NWJgIK_oHAW2l3-DAgLM-108" connectable="0" vertex="1">
          <mxGeometry x="1" relative="1" as="geometry">
            <mxPoint x="-10" as="offset" />
          </mxGeometry>
        </mxCell>
        <mxCell id="NWJgIK_oHAW2l3-DAgLM-112" value="badge" style="shape=ext;margin=3;double=1;whiteSpace=wrap;html=1;align=center;" parent="1" vertex="1">
          <mxGeometry x="605" y="180" width="75" height="40" as="geometry" />
        </mxCell>
        <mxCell id="NWJgIK_oHAW2l3-DAgLM-113" value="ottiene" style="shape=rhombus;double=1;perimeter=rhombusPerimeter;whiteSpace=wrap;html=1;align=center;" parent="1" vertex="1">
          <mxGeometry x="480" y="175" width="70" height="50" as="geometry" />
        </mxCell>
        <mxCell id="NWJgIK_oHAW2l3-DAgLM-116" value="" style="shape=link;html=1;rounded=0;fontSize=12;startSize=8;endSize=8;curved=1;entryX=1;entryY=0.5;entryDx=0;entryDy=0;exitX=0;exitY=0.5;exitDx=0;exitDy=0;" parent="1" source="NWJgIK_oHAW2l3-DAgLM-112" target="NWJgIK_oHAW2l3-DAgLM-113" edge="1">
          <mxGeometry relative="1" as="geometry">
            <mxPoint x="230" y="370" as="sourcePoint" />
            <mxPoint x="390" y="370" as="targetPoint" />
          </mxGeometry>
        </mxCell>
        <mxCell id="NWJgIK_oHAW2l3-DAgLM-117" value="N" style="resizable=0;html=1;whiteSpace=wrap;align=right;verticalAlign=bottom;" parent="NWJgIK_oHAW2l3-DAgLM-116" connectable="0" vertex="1">
          <mxGeometry x="1" relative="1" as="geometry">
            <mxPoint x="11" as="offset" />
          </mxGeometry>
        </mxCell>
        <mxCell id="NWJgIK_oHAW2l3-DAgLM-121" value="" style="endArrow=none;html=1;rounded=0;fontSize=12;startSize=8;endSize=8;curved=1;entryX=0;entryY=0.5;entryDx=0;entryDy=0;exitX=1;exitY=0.5;exitDx=0;exitDy=0;" parent="1" source="biBIcMgOvQUYCyqdAZqE-7" target="NWJgIK_oHAW2l3-DAgLM-113" edge="1">
          <mxGeometry relative="1" as="geometry">
            <mxPoint x="440" y="200" as="sourcePoint" />
            <mxPoint x="390" y="370" as="targetPoint" />
          </mxGeometry>
        </mxCell>
        <mxCell id="NWJgIK_oHAW2l3-DAgLM-122" value="1" style="resizable=0;html=1;whiteSpace=wrap;align=right;verticalAlign=bottom;" parent="NWJgIK_oHAW2l3-DAgLM-121" connectable="0" vertex="1">
          <mxGeometry x="1" relative="1" as="geometry" />
        </mxCell>
        <mxCell id="NWJgIK_oHAW2l3-DAgLM-124" value="" style="endArrow=none;html=1;rounded=0;fontSize=12;startSize=8;endSize=8;curved=1;exitX=1;exitY=1;exitDx=0;exitDy=0;" parent="1" source="NWJgIK_oHAW2l3-DAgLM-73" edge="1">
          <mxGeometry relative="1" as="geometry">
            <mxPoint x="230" y="370" as="sourcePoint" />
            <mxPoint x="270" y="340" as="targetPoint" />
            <Array as="points">
              <mxPoint x="280" y="380" />
              <mxPoint x="270" y="380" />
            </Array>
          </mxGeometry>
        </mxCell>
        <mxCell id="NWJgIK_oHAW2l3-DAgLM-125" value="" style="endArrow=none;html=1;rounded=0;fontSize=12;startSize=8;endSize=8;curved=1;" parent="1" edge="1">
          <mxGeometry relative="1" as="geometry">
            <mxPoint x="350" y="380" as="sourcePoint" />
            <mxPoint x="380" y="360" as="targetPoint" />
          </mxGeometry>
        </mxCell>
        <mxCell id="NWJgIK_oHAW2l3-DAgLM-126" value="" style="endArrow=none;html=1;rounded=0;fontSize=12;startSize=8;endSize=8;curved=1;" parent="1" edge="1">
          <mxGeometry relative="1" as="geometry">
            <mxPoint x="340" y="350" as="sourcePoint" />
            <mxPoint x="350" y="380" as="targetPoint" />
          </mxGeometry>
        </mxCell>
        <mxCell id="NWJgIK_oHAW2l3-DAgLM-129" value="" style="shape=link;html=1;rounded=0;fontSize=12;startSize=8;endSize=8;curved=1;entryX=1;entryY=0.5;entryDx=0;entryDy=0;exitX=0;exitY=0.5;exitDx=0;exitDy=0;" parent="1" source="NWJgIK_oHAW2l3-DAgLM-89" target="yTdTFLldRnQ2-PYzqlcR-5" edge="1">
          <mxGeometry relative="1" as="geometry">
            <mxPoint x="560" y="930" as="sourcePoint" />
            <mxPoint x="525" y="735" as="targetPoint" />
          </mxGeometry>
        </mxCell>
        <mxCell id="NWJgIK_oHAW2l3-DAgLM-130" value="N" style="resizable=0;html=1;whiteSpace=wrap;align=right;verticalAlign=bottom;" parent="NWJgIK_oHAW2l3-DAgLM-129" connectable="0" vertex="1">
          <mxGeometry x="1" relative="1" as="geometry">
            <mxPoint x="15" y="-5" as="offset" />
          </mxGeometry>
        </mxCell>
        <mxCell id="NWJgIK_oHAW2l3-DAgLM-137" value="" style="shape=link;html=1;rounded=0;fontSize=12;startSize=8;endSize=8;curved=1;entryX=0.5;entryY=0;entryDx=0;entryDy=0;exitX=0.5;exitY=1;exitDx=0;exitDy=0;" parent="1" source="NWJgIK_oHAW2l3-DAgLM-65" target="NWJgIK_oHAW2l3-DAgLM-95" edge="1">
          <mxGeometry relative="1" as="geometry">
            <mxPoint x="190" y="529.67" as="sourcePoint" />
            <mxPoint x="92.5" y="809.9999999999999" as="targetPoint" />
          </mxGeometry>
        </mxCell>
        <mxCell id="NWJgIK_oHAW2l3-DAgLM-138" value="N" style="resizable=0;html=1;whiteSpace=wrap;align=right;verticalAlign=bottom;" parent="NWJgIK_oHAW2l3-DAgLM-137" connectable="0" vertex="1">
          <mxGeometry x="1" relative="1" as="geometry">
            <mxPoint x="-10" as="offset" />
          </mxGeometry>
        </mxCell>
        <mxCell id="NWJgIK_oHAW2l3-DAgLM-141" value="" style="shape=link;html=1;rounded=0;fontSize=12;startSize=8;endSize=8;curved=1;entryX=0.5;entryY=0;entryDx=0;entryDy=0;exitX=0.5;exitY=1;exitDx=0;exitDy=0;" parent="1" source="biBIcMgOvQUYCyqdAZqE-7" target="g17DeLx2RG56kNjT_mN6-4" edge="1">
          <mxGeometry relative="1" as="geometry">
            <mxPoint x="230" y="460" as="sourcePoint" />
            <mxPoint x="380" y="260" as="targetPoint" />
          </mxGeometry>
        </mxCell>
        <mxCell id="NWJgIK_oHAW2l3-DAgLM-142" value="1" style="resizable=0;html=1;whiteSpace=wrap;align=right;verticalAlign=bottom;" parent="NWJgIK_oHAW2l3-DAgLM-141" connectable="0" vertex="1">
          <mxGeometry x="1" relative="1" as="geometry">
            <mxPoint x="-10" as="offset" />
          </mxGeometry>
        </mxCell>
        <mxCell id="NWJgIK_oHAW2l3-DAgLM-143" value="" style="endArrow=none;html=1;rounded=0;fontSize=12;startSize=8;endSize=8;curved=1;exitX=0.5;exitY=1;exitDx=0;exitDy=0;" parent="1" source="biBIcMgOvQUYCyqdAZqE-6" target="biBIcMgOvQUYCyqdAZqE-14" edge="1">
          <mxGeometry relative="1" as="geometry">
            <mxPoint x="230" y="460" as="sourcePoint" />
            <mxPoint x="390" y="460" as="targetPoint" />
          </mxGeometry>
        </mxCell>
        <mxCell id="NWJgIK_oHAW2l3-DAgLM-144" value="1" style="resizable=0;html=1;whiteSpace=wrap;align=right;verticalAlign=bottom;" parent="NWJgIK_oHAW2l3-DAgLM-143" connectable="0" vertex="1">
          <mxGeometry x="1" relative="1" as="geometry">
            <mxPoint x="-10" as="offset" />
          </mxGeometry>
        </mxCell>
        <mxCell id="NWJgIK_oHAW2l3-DAgLM-148" value="" style="endArrow=none;html=1;rounded=0;fontSize=12;startSize=8;endSize=8;curved=1;exitX=0;exitY=0.5;exitDx=0;exitDy=0;entryX=1;entryY=0.5;entryDx=0;entryDy=0;" parent="1" source="NWJgIK_oHAW2l3-DAgLM-92" target="NWJgIK_oHAW2l3-DAgLM-95" edge="1">
          <mxGeometry relative="1" as="geometry">
            <mxPoint x="282.5" y="610.33" as="sourcePoint" />
            <mxPoint x="442.5" y="610.33" as="targetPoint" />
          </mxGeometry>
        </mxCell>
        <mxCell id="NWJgIK_oHAW2l3-DAgLM-149" value="N" style="resizable=0;html=1;whiteSpace=wrap;align=right;verticalAlign=bottom;" parent="NWJgIK_oHAW2l3-DAgLM-148" connectable="0" vertex="1">
          <mxGeometry x="1" relative="1" as="geometry">
            <mxPoint x="16" y="20" as="offset" />
          </mxGeometry>
        </mxCell>
        <mxCell id="NWJgIK_oHAW2l3-DAgLM-150" value="motivo" style="ellipse;whiteSpace=wrap;html=1;align=center;" parent="1" vertex="1">
          <mxGeometry x="450" y="815" width="70" height="25" as="geometry" />
        </mxCell>
        <mxCell id="NWJgIK_oHAW2l3-DAgLM-158" value="" style="endArrow=none;html=1;rounded=0;fontSize=12;startSize=8;endSize=8;curved=1;entryX=0.5;entryY=1;entryDx=0;entryDy=0;exitX=0.5;exitY=0;exitDx=0;exitDy=0;" parent="1" source="NWJgIK_oHAW2l3-DAgLM-150" target="yTdTFLldRnQ2-PYzqlcR-5" edge="1">
          <mxGeometry relative="1" as="geometry">
            <mxPoint x="350" y="660" as="sourcePoint" />
            <mxPoint x="480" y="760" as="targetPoint" />
          </mxGeometry>
        </mxCell>
        <mxCell id="NWJgIK_oHAW2l3-DAgLM-159" value="&lt;div&gt;periodo&lt;/div&gt;&lt;div&gt;inizio&lt;/div&gt;" style="ellipse;whiteSpace=wrap;html=1;align=center;" parent="1" vertex="1">
          <mxGeometry x="510" y="850" width="80" height="35" as="geometry" />
        </mxCell>
        <mxCell id="NWJgIK_oHAW2l3-DAgLM-160" value="&lt;div&gt;periodo&lt;/div&gt;&lt;div&gt;fine&lt;/div&gt;" style="ellipse;whiteSpace=wrap;html=1;align=center;" parent="1" vertex="1">
          <mxGeometry x="390" y="849.67" width="70" height="35.33" as="geometry" />
        </mxCell>
        <mxCell id="NWJgIK_oHAW2l3-DAgLM-161" value="" style="endArrow=none;html=1;rounded=0;fontSize=12;startSize=8;endSize=8;curved=1;exitX=0.5;exitY=0;exitDx=0;exitDy=0;entryX=0.5;entryY=1;entryDx=0;entryDy=0;" parent="1" source="NWJgIK_oHAW2l3-DAgLM-160" target="yTdTFLldRnQ2-PYzqlcR-5" edge="1">
          <mxGeometry relative="1" as="geometry">
            <mxPoint x="435" y="835" as="sourcePoint" />
            <mxPoint x="480" y="760" as="targetPoint" />
          </mxGeometry>
        </mxCell>
        <mxCell id="NWJgIK_oHAW2l3-DAgLM-162" value="" style="endArrow=none;html=1;rounded=0;fontSize=12;startSize=8;endSize=8;curved=1;exitX=0.5;exitY=1;exitDx=0;exitDy=0;entryX=0.5;entryY=0;entryDx=0;entryDy=0;" parent="1" source="yTdTFLldRnQ2-PYzqlcR-5" target="NWJgIK_oHAW2l3-DAgLM-159" edge="1">
          <mxGeometry relative="1" as="geometry">
            <mxPoint x="480" y="760" as="sourcePoint" />
            <mxPoint x="510" y="660" as="targetPoint" />
          </mxGeometry>
        </mxCell>
        <mxCell id="NWJgIK_oHAW2l3-DAgLM-164" value="tipo" style="ellipse;whiteSpace=wrap;html=1;align=center;" parent="1" vertex="1">
          <mxGeometry x="-60" y="220" width="60" height="30" as="geometry" />
        </mxCell>
        <mxCell id="NWJgIK_oHAW2l3-DAgLM-165" value="url media" style="ellipse;whiteSpace=wrap;html=1;align=center;" parent="1" vertex="1">
          <mxGeometry x="-100" y="260" width="60" height="30" as="geometry" />
        </mxCell>
        <mxCell id="NWJgIK_oHAW2l3-DAgLM-166" value="formato" style="ellipse;whiteSpace=wrap;html=1;align=center;" parent="1" vertex="1">
          <mxGeometry x="-80" y="310" width="60" height="30" as="geometry" />
        </mxCell>
        <mxCell id="NWJgIK_oHAW2l3-DAgLM-168" value="" style="endArrow=none;html=1;rounded=0;fontSize=12;startSize=8;endSize=8;curved=1;exitX=1;exitY=0.5;exitDx=0;exitDy=0;entryX=0;entryY=0.75;entryDx=0;entryDy=0;" parent="1" source="NWJgIK_oHAW2l3-DAgLM-166" target="NWJgIK_oHAW2l3-DAgLM-42" edge="1">
          <mxGeometry relative="1" as="geometry">
            <mxPoint x="-30" y="350" as="sourcePoint" />
            <mxPoint x="130" y="350" as="targetPoint" />
          </mxGeometry>
        </mxCell>
        <mxCell id="NWJgIK_oHAW2l3-DAgLM-170" value="" style="endArrow=none;html=1;rounded=0;fontSize=12;startSize=8;endSize=8;curved=1;exitX=1;exitY=0.5;exitDx=0;exitDy=0;entryX=0;entryY=0.5;entryDx=0;entryDy=0;" parent="1" source="NWJgIK_oHAW2l3-DAgLM-165" target="NWJgIK_oHAW2l3-DAgLM-42" edge="1">
          <mxGeometry relative="1" as="geometry">
            <mxPoint x="-30" y="350" as="sourcePoint" />
            <mxPoint x="130" y="350" as="targetPoint" />
          </mxGeometry>
        </mxCell>
        <mxCell id="NWJgIK_oHAW2l3-DAgLM-171" value="" style="endArrow=none;html=1;rounded=0;fontSize=12;startSize=8;endSize=8;curved=1;exitX=1;exitY=1;exitDx=0;exitDy=0;entryX=0;entryY=0;entryDx=0;entryDy=0;" parent="1" source="NWJgIK_oHAW2l3-DAgLM-164" target="NWJgIK_oHAW2l3-DAgLM-42" edge="1">
          <mxGeometry relative="1" as="geometry">
            <mxPoint x="-30" y="350" as="sourcePoint" />
            <mxPoint x="130" y="350" as="targetPoint" />
          </mxGeometry>
        </mxCell>
        <mxCell id="NWJgIK_oHAW2l3-DAgLM-172" value="" style="endArrow=none;html=1;rounded=0;fontSize=12;startSize=8;endSize=8;curved=1;entryX=0.25;entryY=0;entryDx=0;entryDy=0;exitX=0.5;exitY=1;exitDx=0;exitDy=0;" parent="1" source="NWJgIK_oHAW2l3-DAgLM-216" target="NWJgIK_oHAW2l3-DAgLM-42" edge="1">
          <mxGeometry relative="1" as="geometry">
            <mxPoint x="43" y="240" as="sourcePoint" />
            <mxPoint x="130" y="350" as="targetPoint" />
          </mxGeometry>
        </mxCell>
        <mxCell id="NWJgIK_oHAW2l3-DAgLM-173" value="maturità" style="ellipse;whiteSpace=wrap;html=1;align=center;" parent="1" vertex="1">
          <mxGeometry x="660" y="307.5" width="60" height="30" as="geometry" />
        </mxCell>
        <mxCell id="NWJgIK_oHAW2l3-DAgLM-174" value="sesso" style="ellipse;whiteSpace=wrap;html=1;align=center;" parent="1" vertex="1">
          <mxGeometry x="730" y="340" width="60" height="30" as="geometry" />
        </mxCell>
        <mxCell id="NWJgIK_oHAW2l3-DAgLM-175" value="condizioni di salute" style="ellipse;whiteSpace=wrap;html=1;align=center;" parent="1" vertex="1">
          <mxGeometry x="730" y="390" width="80" height="50" as="geometry" />
        </mxCell>
        <mxCell id="NWJgIK_oHAW2l3-DAgLM-180" value="" style="endArrow=none;html=1;rounded=0;fontSize=12;startSize=8;endSize=8;curved=1;entryX=0.25;entryY=0;entryDx=0;entryDy=0;exitX=0.5;exitY=1;exitDx=0;exitDy=0;" parent="1" source="NWJgIK_oHAW2l3-DAgLM-185" target="NWJgIK_oHAW2l3-DAgLM-20" edge="1">
          <mxGeometry relative="1" as="geometry">
            <mxPoint x="600" y="361" as="sourcePoint" />
            <mxPoint x="740" y="430" as="targetPoint" />
          </mxGeometry>
        </mxCell>
        <mxCell id="NWJgIK_oHAW2l3-DAgLM-181" value="" style="endArrow=none;html=1;rounded=0;fontSize=12;startSize=8;endSize=8;curved=1;exitX=0.5;exitY=1;exitDx=0;exitDy=0;entryX=0.5;entryY=0;entryDx=0;entryDy=0;" parent="1" source="NWJgIK_oHAW2l3-DAgLM-173" target="NWJgIK_oHAW2l3-DAgLM-20" edge="1">
          <mxGeometry relative="1" as="geometry">
            <mxPoint x="580" y="430" as="sourcePoint" />
            <mxPoint x="740" y="430" as="targetPoint" />
          </mxGeometry>
        </mxCell>
        <mxCell id="NWJgIK_oHAW2l3-DAgLM-182" value="" style="endArrow=none;html=1;rounded=0;fontSize=12;startSize=8;endSize=8;curved=1;entryX=0;entryY=1;entryDx=0;entryDy=0;exitX=0.75;exitY=0;exitDx=0;exitDy=0;" parent="1" source="NWJgIK_oHAW2l3-DAgLM-20" target="NWJgIK_oHAW2l3-DAgLM-174" edge="1">
          <mxGeometry relative="1" as="geometry">
            <mxPoint x="580" y="430" as="sourcePoint" />
            <mxPoint x="740" y="430" as="targetPoint" />
          </mxGeometry>
        </mxCell>
        <mxCell id="NWJgIK_oHAW2l3-DAgLM-183" value="" style="endArrow=none;html=1;rounded=0;fontSize=12;startSize=8;endSize=8;curved=1;entryX=0;entryY=0.5;entryDx=0;entryDy=0;exitX=1;exitY=0.5;exitDx=0;exitDy=0;" parent="1" source="NWJgIK_oHAW2l3-DAgLM-20" target="NWJgIK_oHAW2l3-DAgLM-175" edge="1">
          <mxGeometry relative="1" as="geometry">
            <mxPoint x="580" y="430" as="sourcePoint" />
            <mxPoint x="740" y="430" as="targetPoint" />
          </mxGeometry>
        </mxCell>
        <mxCell id="NWJgIK_oHAW2l3-DAgLM-185" value="&lt;div&gt;&lt;span style=&quot;border-bottom: 1px dotted;&quot;&gt;numero&lt;/span&gt;&lt;/div&gt;&lt;div&gt;&lt;span style=&quot;border-bottom: 1px dotted;&quot;&gt;esempare&lt;/span&gt;&lt;/div&gt;" style="ellipse;whiteSpace=wrap;html=1;align=center;" parent="1" vertex="1">
          <mxGeometry x="560" y="320" width="80" height="40" as="geometry" />
        </mxCell>
        <mxCell id="NWJgIK_oHAW2l3-DAgLM-187" value="&lt;div&gt;&lt;span style=&quot;border-bottom: 1px dotted;&quot;&gt;nome&lt;/span&gt;&lt;/div&gt;&lt;div&gt;&lt;span style=&quot;border-bottom: 1px dotted;&quot;&gt;badge&lt;/span&gt;&lt;/div&gt;" style="ellipse;whiteSpace=wrap;html=1;align=center;" parent="1" vertex="1">
          <mxGeometry x="595" y="100" width="80" height="40" as="geometry" />
        </mxCell>
        <mxCell id="NWJgIK_oHAW2l3-DAgLM-188" value="data assegnazione" style="ellipse;whiteSpace=wrap;html=1;align=center;" parent="1" vertex="1">
          <mxGeometry x="690" y="100" width="80" height="50" as="geometry" />
        </mxCell>
        <mxCell id="NWJgIK_oHAW2l3-DAgLM-190" value="url badge" style="ellipse;whiteSpace=wrap;html=1;align=center;" parent="1" vertex="1">
          <mxGeometry x="620" y="240" width="80" height="30" as="geometry" />
        </mxCell>
        <mxCell id="NWJgIK_oHAW2l3-DAgLM-191" value="" style="endArrow=none;html=1;rounded=0;fontSize=12;startSize=8;endSize=8;curved=1;exitX=0.5;exitY=1;exitDx=0;exitDy=0;entryX=0.5;entryY=0;entryDx=0;entryDy=0;" parent="1" source="NWJgIK_oHAW2l3-DAgLM-187" target="NWJgIK_oHAW2l3-DAgLM-112" edge="1">
          <mxGeometry relative="1" as="geometry">
            <mxPoint x="510" y="280" as="sourcePoint" />
            <mxPoint x="670" y="280" as="targetPoint" />
          </mxGeometry>
        </mxCell>
        <mxCell id="NWJgIK_oHAW2l3-DAgLM-192" value="" style="endArrow=none;html=1;rounded=0;fontSize=12;startSize=8;endSize=8;curved=1;exitX=0.5;exitY=1;exitDx=0;exitDy=0;entryX=0.5;entryY=0;entryDx=0;entryDy=0;" parent="1" source="NWJgIK_oHAW2l3-DAgLM-112" target="NWJgIK_oHAW2l3-DAgLM-190" edge="1">
          <mxGeometry relative="1" as="geometry">
            <mxPoint x="490" y="230" as="sourcePoint" />
            <mxPoint x="520" y="270" as="targetPoint" />
          </mxGeometry>
        </mxCell>
        <mxCell id="NWJgIK_oHAW2l3-DAgLM-194" value="" style="endArrow=none;html=1;rounded=0;fontSize=12;startSize=8;endSize=8;curved=1;entryX=0.083;entryY=0.748;entryDx=0;entryDy=0;entryPerimeter=0;exitX=0.855;exitY=0.035;exitDx=0;exitDy=0;exitPerimeter=0;" parent="1" source="NWJgIK_oHAW2l3-DAgLM-112" target="NWJgIK_oHAW2l3-DAgLM-188" edge="1">
          <mxGeometry relative="1" as="geometry">
            <mxPoint x="680" y="180" as="sourcePoint" />
            <mxPoint x="650" y="310" as="targetPoint" />
          </mxGeometry>
        </mxCell>
        <mxCell id="NWJgIK_oHAW2l3-DAgLM-195" value="&lt;div&gt;data e ora&lt;/div&gt;" style="ellipse;whiteSpace=wrap;html=1;align=center;" parent="1" vertex="1">
          <mxGeometry x="240" y="510" width="70" height="30" as="geometry" />
        </mxCell>
        <mxCell id="NWJgIK_oHAW2l3-DAgLM-197" value="valutazione" style="ellipse;whiteSpace=wrap;html=1;align=center;" parent="1" vertex="1">
          <mxGeometry x="335" y="515" width="85" height="30" as="geometry" />
        </mxCell>
        <mxCell id="NWJgIK_oHAW2l3-DAgLM-198" value="&lt;div&gt;data&lt;/div&gt;&lt;div&gt;revisione&lt;/div&gt;" style="ellipse;whiteSpace=wrap;html=1;align=center;" parent="1" vertex="1">
          <mxGeometry x="290" y="550" width="80" height="40" as="geometry" />
        </mxCell>
        <mxCell id="NWJgIK_oHAW2l3-DAgLM-199" value="" style="endArrow=none;html=1;rounded=0;fontSize=12;startSize=8;endSize=8;curved=1;exitX=0.5;exitY=0;exitDx=0;exitDy=0;entryX=0.375;entryY=0.988;entryDx=0;entryDy=0;entryPerimeter=0;" parent="1" source="NWJgIK_oHAW2l3-DAgLM-195" target="g17DeLx2RG56kNjT_mN6-2" edge="1">
          <mxGeometry relative="1" as="geometry">
            <mxPoint x="330" y="420" as="sourcePoint" />
            <mxPoint x="315" y="460" as="targetPoint" />
          </mxGeometry>
        </mxCell>
        <mxCell id="NWJgIK_oHAW2l3-DAgLM-200" value="" style="endArrow=none;html=1;rounded=0;fontSize=12;startSize=8;endSize=8;curved=1;exitX=0.5;exitY=0;exitDx=0;exitDy=0;entryX=0.5;entryY=1;entryDx=0;entryDy=0;" parent="1" source="NWJgIK_oHAW2l3-DAgLM-198" target="g17DeLx2RG56kNjT_mN6-2" edge="1">
          <mxGeometry relative="1" as="geometry">
            <mxPoint x="320" y="530" as="sourcePoint" />
            <mxPoint x="322.4000000000001" y="462.6" as="targetPoint" />
          </mxGeometry>
        </mxCell>
        <mxCell id="NWJgIK_oHAW2l3-DAgLM-201" value="" style="endArrow=none;html=1;rounded=0;fontSize=12;startSize=8;endSize=8;curved=1;exitX=0;exitY=0;exitDx=0;exitDy=0;entryX=0.585;entryY=0.913;entryDx=0;entryDy=0;entryPerimeter=0;" parent="1" source="NWJgIK_oHAW2l3-DAgLM-197" target="g17DeLx2RG56kNjT_mN6-2" edge="1">
          <mxGeometry relative="1" as="geometry">
            <mxPoint x="330" y="530" as="sourcePoint" />
            <mxPoint x="330.79999999999995" y="462.6" as="targetPoint" />
          </mxGeometry>
        </mxCell>
        <mxCell id="NWJgIK_oHAW2l3-DAgLM-203" value="famiglia" style="ellipse;whiteSpace=wrap;html=1;align=center;" parent="1" vertex="1">
          <mxGeometry x="730" y="680" width="60" height="30" as="geometry" />
        </mxCell>
        <mxCell id="NWJgIK_oHAW2l3-DAgLM-204" value="url verso" style="ellipse;whiteSpace=wrap;html=1;align=center;" parent="1" vertex="1">
          <mxGeometry x="740" y="720" width="60" height="30" as="geometry" />
        </mxCell>
        <mxCell id="NWJgIK_oHAW2l3-DAgLM-205" value="url immagine" style="ellipse;whiteSpace=wrap;html=1;align=center;" parent="1" vertex="1">
          <mxGeometry x="740" y="770" width="70" height="40" as="geometry" />
        </mxCell>
        <mxCell id="NWJgIK_oHAW2l3-DAgLM-206" value="nome comune" style="ellipse;whiteSpace=wrap;html=1;align=center;" parent="1" vertex="1">
          <mxGeometry x="612.5" y="805" width="60" height="30" as="geometry" />
        </mxCell>
        <mxCell id="NWJgIK_oHAW2l3-DAgLM-208" value="&lt;div&gt;nome&lt;/div&gt;&lt;div&gt;schientifico&lt;/div&gt;" style="ellipse;whiteSpace=wrap;html=1;align=center;fontStyle=4;" parent="1" vertex="1">
          <mxGeometry x="680" y="820" width="75" height="40" as="geometry" />
        </mxCell>
        <mxCell id="NWJgIK_oHAW2l3-DAgLM-209" value="" style="endArrow=none;html=1;rounded=0;fontSize=12;startSize=8;endSize=8;curved=1;exitX=1;exitY=0.5;exitDx=0;exitDy=0;entryX=0;entryY=0.5;entryDx=0;entryDy=0;" parent="1" source="NWJgIK_oHAW2l3-DAgLM-89" target="NWJgIK_oHAW2l3-DAgLM-203" edge="1">
          <mxGeometry relative="1" as="geometry">
            <mxPoint x="540" y="710" as="sourcePoint" />
            <mxPoint x="700" y="710" as="targetPoint" />
          </mxGeometry>
        </mxCell>
        <mxCell id="NWJgIK_oHAW2l3-DAgLM-210" value="" style="endArrow=none;html=1;rounded=0;fontSize=12;startSize=8;endSize=8;curved=1;exitX=1;exitY=0.5;exitDx=0;exitDy=0;entryX=0;entryY=0.5;entryDx=0;entryDy=0;" parent="1" source="NWJgIK_oHAW2l3-DAgLM-89" target="NWJgIK_oHAW2l3-DAgLM-204" edge="1">
          <mxGeometry relative="1" as="geometry">
            <mxPoint x="680" y="800" as="sourcePoint" />
            <mxPoint x="710" y="770" as="targetPoint" />
          </mxGeometry>
        </mxCell>
        <mxCell id="NWJgIK_oHAW2l3-DAgLM-211" value="" style="endArrow=none;html=1;rounded=0;fontSize=12;startSize=8;endSize=8;curved=1;exitX=1;exitY=0.5;exitDx=0;exitDy=0;entryX=0.031;entryY=0.285;entryDx=0;entryDy=0;entryPerimeter=0;" parent="1" source="NWJgIK_oHAW2l3-DAgLM-89" target="NWJgIK_oHAW2l3-DAgLM-205" edge="1">
          <mxGeometry relative="1" as="geometry">
            <mxPoint x="690" y="800" as="sourcePoint" />
            <mxPoint x="720" y="770" as="targetPoint" />
          </mxGeometry>
        </mxCell>
        <mxCell id="NWJgIK_oHAW2l3-DAgLM-212" value="" style="endArrow=none;html=1;rounded=0;fontSize=12;startSize=8;endSize=8;curved=1;exitX=0.858;exitY=1.03;exitDx=0;exitDy=0;entryX=0.32;entryY=-0.005;entryDx=0;entryDy=0;entryPerimeter=0;exitPerimeter=0;" parent="1" source="NWJgIK_oHAW2l3-DAgLM-89" target="NWJgIK_oHAW2l3-DAgLM-208" edge="1">
          <mxGeometry relative="1" as="geometry">
            <mxPoint x="680" y="760" as="sourcePoint" />
            <mxPoint x="717" y="806" as="targetPoint" />
          </mxGeometry>
        </mxCell>
        <mxCell id="NWJgIK_oHAW2l3-DAgLM-213" value="" style="endArrow=none;html=1;rounded=0;fontSize=12;startSize=8;endSize=8;curved=1;exitX=0.75;exitY=1;exitDx=0;exitDy=0;entryX=0.5;entryY=0;entryDx=0;entryDy=0;" parent="1" source="NWJgIK_oHAW2l3-DAgLM-89" target="NWJgIK_oHAW2l3-DAgLM-206" edge="1">
          <mxGeometry relative="1" as="geometry">
            <mxPoint x="670" y="810" as="sourcePoint" />
            <mxPoint x="707" y="856" as="targetPoint" />
          </mxGeometry>
        </mxCell>
        <mxCell id="NWJgIK_oHAW2l3-DAgLM-215" value="" style="endArrow=none;html=1;rounded=0;fontSize=12;startSize=8;endSize=8;curved=1;exitX=1;exitY=0;exitDx=0;exitDy=0;entryX=0;entryY=0.5;entryDx=0;entryDy=0;" parent="1" source="g17DeLx2RG56kNjT_mN6-2" target="g17DeLx2RG56kNjT_mN6-1" edge="1">
          <mxGeometry relative="1" as="geometry">
            <mxPoint x="365" y="422.5" as="sourcePoint" />
            <mxPoint x="413.4730880654188" y="384.14213562373106" as="targetPoint" />
          </mxGeometry>
        </mxCell>
        <mxCell id="NWJgIK_oHAW2l3-DAgLM-216" value="&lt;span style=&quot;border-bottom: 1px dotted;&quot;&gt;Titolo media&lt;/span&gt;" style="ellipse;whiteSpace=wrap;html=1;align=center;" parent="1" vertex="1">
          <mxGeometry y="200" width="100" height="40" as="geometry" />
        </mxCell>
        <mxCell id="NWJgIK_oHAW2l3-DAgLM-218" value="Paese" style="ellipse;whiteSpace=wrap;html=1;align=center;fontStyle=4;" parent="1" vertex="1">
          <mxGeometry x="-200" y="562.17" width="70" height="35" as="geometry" />
        </mxCell>
        <mxCell id="NWJgIK_oHAW2l3-DAgLM-219" value="&lt;div&gt;numero&lt;/div&gt;&lt;div&gt;di sedi&lt;/div&gt;" style="ellipse;whiteSpace=wrap;html=1;align=center;" parent="1" vertex="1">
          <mxGeometry x="-210" y="739.67" width="80" height="40" as="geometry" />
        </mxCell>
        <mxCell id="NWJgIK_oHAW2l3-DAgLM-221" value="" style="endArrow=none;html=1;rounded=0;fontSize=12;startSize=8;endSize=8;curved=1;exitX=0.25;exitY=0;exitDx=0;exitDy=0;entryX=0.5;entryY=1;entryDx=0;entryDy=0;" parent="1" source="NWJgIK_oHAW2l3-DAgLM-77" target="NWJgIK_oHAW2l3-DAgLM-218" edge="1">
          <mxGeometry relative="1" as="geometry">
            <mxPoint x="-160" y="659.67" as="sourcePoint" />
            <mxPoint y="659.67" as="targetPoint" />
          </mxGeometry>
        </mxCell>
        <mxCell id="NWJgIK_oHAW2l3-DAgLM-223" value="" style="endArrow=none;html=1;rounded=0;fontSize=12;startSize=8;endSize=8;curved=1;exitX=0.25;exitY=1;exitDx=0;exitDy=0;entryX=0.5;entryY=0;entryDx=0;entryDy=0;" parent="1" source="NWJgIK_oHAW2l3-DAgLM-77" target="NWJgIK_oHAW2l3-DAgLM-219" edge="1">
          <mxGeometry relative="1" as="geometry">
            <mxPoint x="-160" y="659.67" as="sourcePoint" />
            <mxPoint y="659.67" as="targetPoint" />
          </mxGeometry>
        </mxCell>
        <mxCell id="NWJgIK_oHAW2l3-DAgLM-224" value="" style="endArrow=none;html=1;rounded=0;fontSize=12;startSize=8;endSize=8;curved=1;exitX=0.609;exitY=0.956;exitDx=0;exitDy=0;entryX=0;entryY=0;entryDx=0;entryDy=0;exitPerimeter=0;" parent="1" source="NWJgIK_oHAW2l3-DAgLM-77" target="yTdTFLldRnQ2-PYzqlcR-4" edge="1">
          <mxGeometry relative="1" as="geometry">
            <mxPoint x="-260" y="689.67" as="sourcePoint" />
            <mxPoint x="-139.74873734152902" y="705.8578643762689" as="targetPoint" />
          </mxGeometry>
        </mxCell>
        <mxCell id="NWJgIK_oHAW2l3-DAgLM-225" value="nome" style="ellipse;whiteSpace=wrap;html=1;align=center;" parent="1" vertex="1">
          <mxGeometry x="-50" y="744.67" width="60" height="30" as="geometry" />
        </mxCell>
        <mxCell id="NWJgIK_oHAW2l3-DAgLM-226" value="url mappa" style="ellipse;whiteSpace=wrap;html=1;align=center;" parent="1" vertex="1">
          <mxGeometry x="-50" y="564.67" width="70" height="30" as="geometry" />
        </mxCell>
        <mxCell id="NWJgIK_oHAW2l3-DAgLM-227" value="area protetta" style="ellipse;whiteSpace=wrap;html=1;align=center;" parent="1" vertex="1">
          <mxGeometry x="190" y="680" width="65" height="40" as="geometry" />
        </mxCell>
        <mxCell id="NWJgIK_oHAW2l3-DAgLM-228" value="plus code" style="ellipse;whiteSpace=wrap;html=1;align=center;fontStyle=4;" parent="1" vertex="1">
          <mxGeometry x="122.5" y="730" width="70" height="30" as="geometry" />
        </mxCell>
        <mxCell id="NWJgIK_oHAW2l3-DAgLM-229" value="" style="endArrow=none;html=1;rounded=0;fontSize=12;startSize=8;endSize=8;curved=1;exitX=0.957;exitY=0.892;exitDx=0;exitDy=0;exitPerimeter=0;entryX=0.155;entryY=0;entryDx=0;entryDy=0;entryPerimeter=0;" parent="1" source="NWJgIK_oHAW2l3-DAgLM-226" target="NWJgIK_oHAW2l3-DAgLM-65" edge="1">
          <mxGeometry relative="1" as="geometry">
            <mxPoint x="10" y="629.67" as="sourcePoint" />
            <mxPoint x="170" y="629.67" as="targetPoint" />
          </mxGeometry>
        </mxCell>
        <mxCell id="NWJgIK_oHAW2l3-DAgLM-230" value="" style="endArrow=none;html=1;rounded=0;fontSize=12;startSize=8;endSize=8;curved=1;exitX=1;exitY=0;exitDx=0;exitDy=0;entryX=0.14;entryY=1.069;entryDx=0;entryDy=0;entryPerimeter=0;" parent="1" source="NWJgIK_oHAW2l3-DAgLM-225" target="NWJgIK_oHAW2l3-DAgLM-65" edge="1">
          <mxGeometry relative="1" as="geometry">
            <mxPoint x="50" y="729.67" as="sourcePoint" />
            <mxPoint x="79" y="767.67" as="targetPoint" />
          </mxGeometry>
        </mxCell>
        <mxCell id="NWJgIK_oHAW2l3-DAgLM-231" value="" style="endArrow=none;html=1;rounded=0;fontSize=12;startSize=8;endSize=8;curved=1;exitX=0.238;exitY=-0.031;exitDx=0;exitDy=0;entryX=1;entryY=0.5;entryDx=0;entryDy=0;exitPerimeter=0;" parent="1" source="NWJgIK_oHAW2l3-DAgLM-227" target="NWJgIK_oHAW2l3-DAgLM-65" edge="1">
          <mxGeometry relative="1" as="geometry">
            <mxPoint x="180" y="682.17" as="sourcePoint" />
            <mxPoint x="69" y="757.67" as="targetPoint" />
          </mxGeometry>
        </mxCell>
        <mxCell id="NWJgIK_oHAW2l3-DAgLM-232" value="" style="endArrow=none;html=1;rounded=0;fontSize=12;startSize=8;endSize=8;curved=1;exitX=0.653;exitY=0.925;exitDx=0;exitDy=0;entryX=0.339;entryY=-0.008;entryDx=0;entryDy=0;entryPerimeter=0;exitPerimeter=0;" parent="1" source="NWJgIK_oHAW2l3-DAgLM-65" target="NWJgIK_oHAW2l3-DAgLM-228" edge="1">
          <mxGeometry relative="1" as="geometry">
            <mxPoint x="130" y="699.67" as="sourcePoint" />
            <mxPoint x="142.23999999999978" y="719.68" as="targetPoint" />
          </mxGeometry>
        </mxCell>
        <mxCell id="NWJgIK_oHAW2l3-DAgLM-233" value="&lt;div&gt;codice&lt;/div&gt;&lt;div&gt;tessera&lt;/div&gt;" style="ellipse;whiteSpace=wrap;html=1;align=center;fontStyle=4;" parent="1" vertex="1">
          <mxGeometry x="347.5" y="80" width="70" height="40" as="geometry" />
        </mxCell>
        <mxCell id="NWJgIK_oHAW2l3-DAgLM-234" value="nome" style="ellipse;whiteSpace=wrap;html=1;align=center;" parent="1" vertex="1">
          <mxGeometry x="180" y="100" width="55" height="30" as="geometry" />
        </mxCell>
        <mxCell id="NWJgIK_oHAW2l3-DAgLM-235" value="cognome" style="ellipse;whiteSpace=wrap;html=1;align=center;" parent="1" vertex="1">
          <mxGeometry x="127.5" y="70" width="60" height="30" as="geometry" />
        </mxCell>
        <mxCell id="NWJgIK_oHAW2l3-DAgLM-236" value="email" style="ellipse;whiteSpace=wrap;html=1;align=center;" parent="1" vertex="1">
          <mxGeometry x="357.5" y="10" width="60" height="30" as="geometry" />
        </mxCell>
        <mxCell id="NWJgIK_oHAW2l3-DAgLM-237" value="data di nascità" style="ellipse;whiteSpace=wrap;html=1;align=center;" parent="1" vertex="1">
          <mxGeometry x="170" y="10" width="60" height="40" as="geometry" />
        </mxCell>
        <mxCell id="NWJgIK_oHAW2l3-DAgLM-238" value="data iscrizione" style="ellipse;whiteSpace=wrap;html=1;align=center;" parent="1" vertex="1">
          <mxGeometry x="417.5" y="30" width="60" height="40" as="geometry" />
        </mxCell>
        <mxCell id="NWJgIK_oHAW2l3-DAgLM-239" value="" style="endArrow=none;html=1;rounded=0;fontSize=12;startSize=8;endSize=8;curved=1;entryX=0;entryY=0;entryDx=0;entryDy=0;exitX=1;exitY=1;exitDx=0;exitDy=0;" parent="1" source="biBIcMgOvQUYCyqdAZqE-1" target="NWJgIK_oHAW2l3-DAgLM-233" edge="1">
          <mxGeometry relative="1" as="geometry">
            <mxPoint x="290" y="170" as="sourcePoint" />
            <mxPoint x="450" y="170" as="targetPoint" />
          </mxGeometry>
        </mxCell>
        <mxCell id="NWJgIK_oHAW2l3-DAgLM-240" value="" style="endArrow=none;html=1;rounded=0;fontSize=12;startSize=8;endSize=8;curved=1;entryX=0;entryY=0.5;entryDx=0;entryDy=0;exitX=1;exitY=0.75;exitDx=0;exitDy=0;" parent="1" source="biBIcMgOvQUYCyqdAZqE-1" target="NWJgIK_oHAW2l3-DAgLM-238" edge="1">
          <mxGeometry relative="1" as="geometry">
            <mxPoint x="330" y="90" as="sourcePoint" />
            <mxPoint x="365" y="116" as="targetPoint" />
          </mxGeometry>
        </mxCell>
        <mxCell id="NWJgIK_oHAW2l3-DAgLM-241" value="" style="endArrow=none;html=1;rounded=0;fontSize=12;startSize=8;endSize=8;curved=1;entryX=0;entryY=0.5;entryDx=0;entryDy=0;exitX=1;exitY=0.25;exitDx=0;exitDy=0;" parent="1" source="biBIcMgOvQUYCyqdAZqE-1" target="NWJgIK_oHAW2l3-DAgLM-236" edge="1">
          <mxGeometry relative="1" as="geometry">
            <mxPoint x="340" y="60" as="sourcePoint" />
            <mxPoint x="375" y="86" as="targetPoint" />
          </mxGeometry>
        </mxCell>
        <mxCell id="NWJgIK_oHAW2l3-DAgLM-242" value="" style="endArrow=none;html=1;rounded=0;fontSize=12;startSize=8;endSize=8;curved=1;entryX=0.992;entryY=0.738;entryDx=0;entryDy=0;exitX=0;exitY=0.25;exitDx=0;exitDy=0;entryPerimeter=0;" parent="1" source="biBIcMgOvQUYCyqdAZqE-1" target="NWJgIK_oHAW2l3-DAgLM-237" edge="1">
          <mxGeometry relative="1" as="geometry">
            <mxPoint x="310" y="50" as="sourcePoint" />
            <mxPoint x="345" y="76" as="targetPoint" />
          </mxGeometry>
        </mxCell>
        <mxCell id="NWJgIK_oHAW2l3-DAgLM-243" value="" style="endArrow=none;html=1;rounded=0;fontSize=12;startSize=8;endSize=8;curved=1;entryX=0;entryY=0.75;entryDx=0;entryDy=0;exitX=1;exitY=0.5;exitDx=0;exitDy=0;" parent="1" source="NWJgIK_oHAW2l3-DAgLM-235" target="biBIcMgOvQUYCyqdAZqE-1" edge="1">
          <mxGeometry relative="1" as="geometry">
            <mxPoint x="300" y="50" as="sourcePoint" />
            <mxPoint x="335" y="76" as="targetPoint" />
          </mxGeometry>
        </mxCell>
        <mxCell id="NWJgIK_oHAW2l3-DAgLM-244" value="" style="endArrow=none;html=1;rounded=0;fontSize=12;startSize=8;endSize=8;curved=1;entryX=0.172;entryY=1.108;entryDx=0;entryDy=0;exitX=1;exitY=0;exitDx=0;exitDy=0;entryPerimeter=0;" parent="1" source="NWJgIK_oHAW2l3-DAgLM-234" target="biBIcMgOvQUYCyqdAZqE-1" edge="1">
          <mxGeometry relative="1" as="geometry">
            <mxPoint x="240" y="90" as="sourcePoint" />
            <mxPoint x="275" y="116" as="targetPoint" />
          </mxGeometry>
        </mxCell>
        <mxCell id="NWJgIK_oHAW2l3-DAgLM-247" value="data di attribuzione" style="ellipse;whiteSpace=wrap;html=1;align=center;" parent="1" vertex="1">
          <mxGeometry x="440" y="120" width="80" height="45" as="geometry" />
        </mxCell>
        <mxCell id="NWJgIK_oHAW2l3-DAgLM-248" value="" style="endArrow=none;html=1;rounded=0;fontSize=12;startSize=8;endSize=8;curved=1;entryX=0;entryY=1;entryDx=0;entryDy=0;exitX=1;exitY=0;exitDx=0;exitDy=0;" parent="1" source="biBIcMgOvQUYCyqdAZqE-7" target="NWJgIK_oHAW2l3-DAgLM-247" edge="1">
          <mxGeometry relative="1" as="geometry">
            <mxPoint x="210" y="310" as="sourcePoint" />
            <mxPoint x="370" y="310" as="targetPoint" />
          </mxGeometry>
        </mxCell>
        <mxCell id="NWJgIK_oHAW2l3-DAgLM-251" value="&lt;div&gt;Condizioni&lt;/div&gt;&lt;div&gt;Ambientali&lt;/div&gt;" style="ellipse;whiteSpace=wrap;html=1;align=center;" parent="1" vertex="1">
          <mxGeometry x="435" y="495" width="85" height="40" as="geometry" />
        </mxCell>
        <mxCell id="NWJgIK_oHAW2l3-DAgLM-252" value="" style="endArrow=none;html=1;rounded=0;fontSize=12;startSize=8;endSize=8;curved=1;exitX=0.75;exitY=1;exitDx=0;exitDy=0;entryX=0;entryY=0;entryDx=0;entryDy=0;" parent="1" source="g17DeLx2RG56kNjT_mN6-2" target="NWJgIK_oHAW2l3-DAgLM-251" edge="1">
          <mxGeometry relative="1" as="geometry">
            <mxPoint x="365" y="460" as="sourcePoint" />
            <mxPoint x="430" y="470" as="targetPoint" />
          </mxGeometry>
        </mxCell>
        <mxCell id="NWJgIK_oHAW2l3-DAgLM-253" value="meteo" style="ellipse;whiteSpace=wrap;html=1;align=center;" parent="1" vertex="1">
          <mxGeometry x="382.5" y="560" width="52.5" height="20" as="geometry" />
        </mxCell>
        <mxCell id="NWJgIK_oHAW2l3-DAgLM-254" value="umidità" style="ellipse;whiteSpace=wrap;html=1;align=center;" parent="1" vertex="1">
          <mxGeometry x="417.5" y="585" width="62.5" height="30" as="geometry" />
        </mxCell>
        <mxCell id="NWJgIK_oHAW2l3-DAgLM-255" value="temeperatura" style="ellipse;whiteSpace=wrap;html=1;align=center;" parent="1" vertex="1">
          <mxGeometry x="482.5" y="555" width="77.5" height="35" as="geometry" />
        </mxCell>
        <mxCell id="NWJgIK_oHAW2l3-DAgLM-256" value="" style="endArrow=none;html=1;rounded=0;fontSize=12;startSize=8;endSize=8;curved=1;entryX=0;entryY=1;entryDx=0;entryDy=0;exitX=0.5;exitY=0;exitDx=0;exitDy=0;" parent="1" source="NWJgIK_oHAW2l3-DAgLM-253" target="NWJgIK_oHAW2l3-DAgLM-251" edge="1">
          <mxGeometry relative="1" as="geometry">
            <mxPoint x="270" y="470" as="sourcePoint" />
            <mxPoint x="430" y="470" as="targetPoint" />
          </mxGeometry>
        </mxCell>
        <mxCell id="NWJgIK_oHAW2l3-DAgLM-258" value="" style="endArrow=none;html=1;rounded=0;fontSize=12;startSize=8;endSize=8;curved=1;entryX=0.409;entryY=0.981;entryDx=0;entryDy=0;exitX=0.5;exitY=0;exitDx=0;exitDy=0;entryPerimeter=0;" parent="1" source="NWJgIK_oHAW2l3-DAgLM-254" target="NWJgIK_oHAW2l3-DAgLM-251" edge="1">
          <mxGeometry relative="1" as="geometry">
            <mxPoint x="440" y="551" as="sourcePoint" />
            <mxPoint x="454" y="530" as="targetPoint" />
          </mxGeometry>
        </mxCell>
        <mxCell id="NWJgIK_oHAW2l3-DAgLM-259" value="" style="endArrow=none;html=1;rounded=0;fontSize=12;startSize=8;endSize=8;curved=1;entryX=0.5;entryY=0;entryDx=0;entryDy=0;exitX=1;exitY=1;exitDx=0;exitDy=0;" parent="1" source="NWJgIK_oHAW2l3-DAgLM-251" target="NWJgIK_oHAW2l3-DAgLM-255" edge="1">
          <mxGeometry relative="1" as="geometry">
            <mxPoint x="510" y="571" as="sourcePoint" />
            <mxPoint x="524" y="550" as="targetPoint" />
          </mxGeometry>
        </mxCell>
        <mxCell id="NWJgIK_oHAW2l3-DAgLM-261" value="codice eunis" style="ellipse;whiteSpace=wrap;html=1;align=center;fontStyle=4;" parent="1" vertex="1">
          <mxGeometry x="127.5" y="875" width="85" height="40" as="geometry" />
        </mxCell>
        <mxCell id="NWJgIK_oHAW2l3-DAgLM-262" value="nome habitat" style="ellipse;whiteSpace=wrap;html=1;align=center;" parent="1" vertex="1">
          <mxGeometry x="182.5" y="930" width="70" height="40" as="geometry" />
        </mxCell>
        <mxCell id="NWJgIK_oHAW2l3-DAgLM-263" value="url descrizione" style="ellipse;whiteSpace=wrap;html=1;align=center;" parent="1" vertex="1">
          <mxGeometry x="255" y="899.67" width="70" height="40" as="geometry" />
        </mxCell>
        <mxCell id="NWJgIK_oHAW2l3-DAgLM-265" value="" style="endArrow=none;html=1;rounded=0;fontSize=12;startSize=8;endSize=8;curved=1;exitX=0.25;exitY=1;exitDx=0;exitDy=0;entryX=0.5;entryY=0;entryDx=0;entryDy=0;" parent="1" source="NWJgIK_oHAW2l3-DAgLM-92" target="NWJgIK_oHAW2l3-DAgLM-261" edge="1">
          <mxGeometry relative="1" as="geometry">
            <mxPoint x="207.5" y="620" as="sourcePoint" />
            <mxPoint x="367.5" y="620" as="targetPoint" />
          </mxGeometry>
        </mxCell>
        <mxCell id="NWJgIK_oHAW2l3-DAgLM-267" value="" style="endArrow=none;html=1;rounded=0;fontSize=12;startSize=8;endSize=8;curved=1;exitX=0.25;exitY=1;exitDx=0;exitDy=0;entryX=0.5;entryY=0;entryDx=0;entryDy=0;" parent="1" source="NWJgIK_oHAW2l3-DAgLM-92" target="NWJgIK_oHAW2l3-DAgLM-262" edge="1">
          <mxGeometry relative="1" as="geometry">
            <mxPoint x="273.5" y="860" as="sourcePoint" />
            <mxPoint x="207.5" y="900" as="targetPoint" />
          </mxGeometry>
        </mxCell>
        <mxCell id="NWJgIK_oHAW2l3-DAgLM-268" value="" style="endArrow=none;html=1;rounded=0;fontSize=12;startSize=8;endSize=8;curved=1;entryX=0.25;entryY=1;entryDx=0;entryDy=0;exitX=0.5;exitY=0;exitDx=0;exitDy=0;" parent="1" source="NWJgIK_oHAW2l3-DAgLM-263" target="NWJgIK_oHAW2l3-DAgLM-92" edge="1">
          <mxGeometry relative="1" as="geometry">
            <mxPoint x="275" y="889.67" as="sourcePoint" />
            <mxPoint x="257.5" y="900" as="targetPoint" />
          </mxGeometry>
        </mxCell>
        <mxCell id="NWJgIK_oHAW2l3-DAgLM-270" value="telefono" style="ellipse;whiteSpace=wrap;html=1;align=center;" parent="1" vertex="1">
          <mxGeometry x="70" y="40" width="80" height="30" as="geometry" />
        </mxCell>
        <mxCell id="NWJgIK_oHAW2l3-DAgLM-273" value="" style="endArrow=none;html=1;rounded=0;fontSize=12;startSize=8;endSize=8;curved=1;exitX=1;exitY=0.5;exitDx=0;exitDy=0;entryX=0;entryY=0.5;entryDx=0;entryDy=0;" parent="1" source="NWJgIK_oHAW2l3-DAgLM-270" target="biBIcMgOvQUYCyqdAZqE-1" edge="1">
          <mxGeometry relative="1" as="geometry">
            <mxPoint x="250" y="200" as="sourcePoint" />
            <mxPoint x="410" y="200" as="targetPoint" />
          </mxGeometry>
        </mxCell>
        <mxCell id="NWJgIK_oHAW2l3-DAgLM-278" value="" style="shape=link;html=1;rounded=0;fontSize=12;startSize=8;endSize=8;curved=1;exitX=1;exitY=0.5;exitDx=0;exitDy=0;entryX=0;entryY=0.5;entryDx=0;entryDy=0;" parent="1" source="NWJgIK_oHAW2l3-DAgLM-50" target="NWJgIK_oHAW2l3-DAgLM-55" edge="1">
          <mxGeometry relative="1" as="geometry">
            <mxPoint x="100" y="330" as="sourcePoint" />
            <mxPoint x="137" y="369" as="targetPoint" />
          </mxGeometry>
        </mxCell>
        <mxCell id="NWJgIK_oHAW2l3-DAgLM-279" value="N" style="resizable=0;html=1;whiteSpace=wrap;align=right;verticalAlign=bottom;fontSize=15;" parent="NWJgIK_oHAW2l3-DAgLM-278" connectable="0" vertex="1">
          <mxGeometry x="1" relative="1" as="geometry">
            <mxPoint as="offset" />
          </mxGeometry>
        </mxCell>
        <mxCell id="NWJgIK_oHAW2l3-DAgLM-280" value="&lt;span style=&quot;border-bottom: 1px dotted;&quot;&gt;marca&lt;/span&gt;" style="ellipse;whiteSpace=wrap;html=1;align=center;" parent="1" vertex="1">
          <mxGeometry x="-150" y="385" width="60" height="30" as="geometry" />
        </mxCell>
        <mxCell id="NWJgIK_oHAW2l3-DAgLM-281" value="&lt;span style=&quot;border-bottom: 1px dotted;&quot;&gt;modello&lt;/span&gt;" style="ellipse;whiteSpace=wrap;html=1;align=center;" parent="1" vertex="1">
          <mxGeometry x="-210" y="425" width="60" height="30" as="geometry" />
        </mxCell>
        <mxCell id="NWJgIK_oHAW2l3-DAgLM-282" value="&lt;div&gt;tipo di&lt;/div&gt;&lt;div&gt;richiamo&lt;/div&gt;" style="ellipse;whiteSpace=wrap;html=1;align=center;" parent="1" vertex="1">
          <mxGeometry x="-160" y="470" width="70" height="40" as="geometry" />
        </mxCell>
        <mxCell id="NWJgIK_oHAW2l3-DAgLM-284" value="" style="endArrow=none;html=1;rounded=0;fontSize=12;startSize=8;endSize=8;curved=1;exitX=1;exitY=1;exitDx=0;exitDy=0;entryX=0;entryY=0.5;entryDx=0;entryDy=0;" parent="1" source="NWJgIK_oHAW2l3-DAgLM-280" target="NWJgIK_oHAW2l3-DAgLM-50" edge="1">
          <mxGeometry relative="1" as="geometry">
            <mxPoint x="-20" y="460" as="sourcePoint" />
            <mxPoint x="140" y="460" as="targetPoint" />
          </mxGeometry>
        </mxCell>
        <mxCell id="NWJgIK_oHAW2l3-DAgLM-285" value="" style="endArrow=none;html=1;rounded=0;fontSize=12;startSize=8;endSize=8;curved=1;exitX=1;exitY=0.5;exitDx=0;exitDy=0;entryX=0;entryY=0.5;entryDx=0;entryDy=0;" parent="1" source="NWJgIK_oHAW2l3-DAgLM-281" target="NWJgIK_oHAW2l3-DAgLM-50" edge="1">
          <mxGeometry relative="1" as="geometry">
            <mxPoint x="-80" y="450" as="sourcePoint" />
            <mxPoint x="-51" y="484" as="targetPoint" />
          </mxGeometry>
        </mxCell>
        <mxCell id="NWJgIK_oHAW2l3-DAgLM-286" value="" style="endArrow=none;html=1;rounded=0;fontSize=12;startSize=8;endSize=8;curved=1;exitX=0.5;exitY=0;exitDx=0;exitDy=0;entryX=0;entryY=0.5;entryDx=0;entryDy=0;" parent="1" source="NWJgIK_oHAW2l3-DAgLM-282" target="NWJgIK_oHAW2l3-DAgLM-50" edge="1">
          <mxGeometry relative="1" as="geometry">
            <mxPoint x="-140" y="450" as="sourcePoint" />
            <mxPoint x="-60" y="455" as="targetPoint" />
          </mxGeometry>
        </mxCell>
        <mxCell id="yTdTFLldRnQ2-PYzqlcR-4" value="nome regione" style="ellipse;whiteSpace=wrap;html=1;align=center;fontStyle=4;" parent="1" vertex="1">
          <mxGeometry x="-150" y="700" width="90" height="30" as="geometry" />
        </mxCell>
        <mxCell id="yTdTFLldRnQ2-PYzqlcR-5" value="&lt;div&gt;pattern&lt;/div&gt;&lt;div&gt;migratori&lt;/div&gt;" style="shape=rhombus;perimeter=rhombusPerimeter;whiteSpace=wrap;html=1;align=center;" parent="1" vertex="1">
          <mxGeometry x="435" y="705" width="85" height="60" as="geometry" />
        </mxCell>
        <mxCell id="g17DeLx2RG56kNjT_mN6-1" value="&lt;span style=&quot;border-bottom: 1px dotted;&quot;&gt;numero avvitamento&lt;/span&gt;" style="ellipse;whiteSpace=wrap;html=1;align=center;" vertex="1" parent="1">
          <mxGeometry x="406.25" y="350" width="85" height="40" as="geometry" />
        </mxCell>
        <mxCell id="g17DeLx2RG56kNjT_mN6-2" value="Avvistamento" style="shape=ext;margin=3;double=1;whiteSpace=wrap;html=1;align=center;" vertex="1" parent="1">
          <mxGeometry x="265" y="415" width="100" height="40" as="geometry" />
        </mxCell>
        <mxCell id="g17DeLx2RG56kNjT_mN6-4" value="effetua" style="shape=rhombus;double=1;perimeter=rhombusPerimeter;whiteSpace=wrap;html=1;align=center;" vertex="1" parent="1">
          <mxGeometry x="345" y="260" width="70" height="50" as="geometry" />
        </mxCell>
      </root>
    </mxGraphModel>
  </diagram>
  <diagram id="hSH0PTNLPBkDyhcxiUwT" name="Page-2">
    <mxGraphModel dx="1453" dy="503" grid="1" gridSize="10" guides="1" tooltips="1" connect="1" arrows="1" fold="1" page="1" pageScale="1" pageWidth="850" pageHeight="1100" math="0" shadow="0">
      <root>
        <mxCell id="0" />
        <mxCell id="1" parent="0" />
        <mxCell id="ssG9x24GmVvvbLI8zIeY-1" value="Regione" style="swimlane;fontStyle=0;childLayout=stackLayout;horizontal=1;startSize=26;fillColor=none;horizontalStack=0;resizeParent=1;resizeParentMax=0;resizeLast=0;collapsible=1;marginBottom=0;whiteSpace=wrap;html=1;" parent="1" vertex="1">
          <mxGeometry x="10" y="902" width="210" height="120" as="geometry" />
        </mxCell>
        <mxCell id="ssG9x24GmVvvbLI8zIeY-2" value="+ nome_regione: varchar2 &amp;lt;&amp;lt;pk&amp;gt;&amp;gt;" style="text;strokeColor=none;fillColor=none;align=left;verticalAlign=top;spacingLeft=4;spacingRight=4;overflow=hidden;rotatable=0;points=[[0,0.5],[1,0.5]];portConstraint=eastwest;whiteSpace=wrap;html=1;" parent="ssG9x24GmVvvbLI8zIeY-1" vertex="1">
          <mxGeometry y="26" width="210" height="26" as="geometry" />
        </mxCell>
        <mxCell id="ssG9x24GmVvvbLI8zIeY-3" value="+ paese: varchar2&amp;nbsp; &amp;lt;&amp;lt;pk&amp;gt;&amp;gt;" style="text;strokeColor=none;fillColor=none;align=left;verticalAlign=top;spacingLeft=4;spacingRight=4;overflow=hidden;rotatable=0;points=[[0,0.5],[1,0.5]];portConstraint=eastwest;whiteSpace=wrap;html=1;" parent="ssG9x24GmVvvbLI8zIeY-1" vertex="1">
          <mxGeometry y="52" width="210" height="26" as="geometry" />
        </mxCell>
        <mxCell id="ssG9x24GmVvvbLI8zIeY-4" value="+ numero_sedi: number" style="text;strokeColor=none;fillColor=none;align=left;verticalAlign=top;spacingLeft=4;spacingRight=4;overflow=hidden;rotatable=0;points=[[0,0.5],[1,0.5]];portConstraint=eastwest;whiteSpace=wrap;html=1;" parent="ssG9x24GmVvvbLI8zIeY-1" vertex="1">
          <mxGeometry y="78" width="210" height="42" as="geometry" />
        </mxCell>
        <mxCell id="ssG9x24GmVvvbLI8zIeY-7" value="Osservatore" style="swimlane;fontStyle=0;childLayout=stackLayout;horizontal=1;startSize=26;fillColor=none;horizontalStack=0;resizeParent=1;resizeParentMax=0;resizeLast=0;collapsible=1;marginBottom=0;whiteSpace=wrap;html=1;" parent="1" vertex="1">
          <mxGeometry x="355" y="150" width="160" height="52" as="geometry" />
        </mxCell>
        <mxCell id="ssG9x24GmVvvbLI8zIeY-8" value="+ codice_tessera: varchar2" style="text;strokeColor=none;fillColor=none;align=left;verticalAlign=top;spacingLeft=4;spacingRight=4;overflow=hidden;rotatable=0;points=[[0,0.5],[1,0.5]];portConstraint=eastwest;whiteSpace=wrap;html=1;" parent="ssG9x24GmVvvbLI8zIeY-7" vertex="1">
          <mxGeometry y="26" width="160" height="26" as="geometry" />
        </mxCell>
        <mxCell id="ssG9x24GmVvvbLI8zIeY-11" value="Socio" style="swimlane;fontStyle=0;childLayout=stackLayout;horizontal=1;startSize=26;fillColor=none;horizontalStack=0;resizeParent=1;resizeParentMax=0;resizeLast=0;collapsible=1;marginBottom=0;whiteSpace=wrap;html=1;" parent="1" vertex="1">
          <mxGeometry x="30" y="230" width="200" height="208" as="geometry" />
        </mxCell>
        <mxCell id="ssG9x24GmVvvbLI8zIeY-12" value="+ codice_tessera: varchar2 &amp;lt;&amp;lt;pk&amp;gt;&amp;gt;" style="text;strokeColor=none;fillColor=none;align=left;verticalAlign=top;spacingLeft=4;spacingRight=4;overflow=hidden;rotatable=0;points=[[0,0.5],[1,0.5]];portConstraint=eastwest;whiteSpace=wrap;html=1;" parent="ssG9x24GmVvvbLI8zIeY-11" vertex="1">
          <mxGeometry y="26" width="200" height="26" as="geometry" />
        </mxCell>
        <mxCell id="ssG9x24GmVvvbLI8zIeY-13" value="+ nome: varchar2" style="text;strokeColor=none;fillColor=none;align=left;verticalAlign=top;spacingLeft=4;spacingRight=4;overflow=hidden;rotatable=0;points=[[0,0.5],[1,0.5]];portConstraint=eastwest;whiteSpace=wrap;html=1;" parent="ssG9x24GmVvvbLI8zIeY-11" vertex="1">
          <mxGeometry y="52" width="200" height="26" as="geometry" />
        </mxCell>
        <mxCell id="ssG9x24GmVvvbLI8zIeY-14" value="+ cognome: varchar2" style="text;strokeColor=none;fillColor=none;align=left;verticalAlign=top;spacingLeft=4;spacingRight=4;overflow=hidden;rotatable=0;points=[[0,0.5],[1,0.5]];portConstraint=eastwest;whiteSpace=wrap;html=1;" parent="ssG9x24GmVvvbLI8zIeY-11" vertex="1">
          <mxGeometry y="78" width="200" height="26" as="geometry" />
        </mxCell>
        <mxCell id="ssG9x24GmVvvbLI8zIeY-17" value="+ email: varchar2" style="text;strokeColor=none;fillColor=none;align=left;verticalAlign=top;spacingLeft=4;spacingRight=4;overflow=hidden;rotatable=0;points=[[0,0.5],[1,0.5]];portConstraint=eastwest;whiteSpace=wrap;html=1;" parent="ssG9x24GmVvvbLI8zIeY-11" vertex="1">
          <mxGeometry y="104" width="200" height="26" as="geometry" />
        </mxCell>
        <mxCell id="ssG9x24GmVvvbLI8zIeY-19" value="+ telefono: varchar2" style="text;strokeColor=none;fillColor=none;align=left;verticalAlign=top;spacingLeft=4;spacingRight=4;overflow=hidden;rotatable=0;points=[[0,0.5],[1,0.5]];portConstraint=eastwest;whiteSpace=wrap;html=1;" parent="ssG9x24GmVvvbLI8zIeY-11" vertex="1">
          <mxGeometry y="130" width="200" height="26" as="geometry" />
        </mxCell>
        <mxCell id="ssG9x24GmVvvbLI8zIeY-18" value="+ data_nascità: date" style="text;strokeColor=none;fillColor=none;align=left;verticalAlign=top;spacingLeft=4;spacingRight=4;overflow=hidden;rotatable=0;points=[[0,0.5],[1,0.5]];portConstraint=eastwest;whiteSpace=wrap;html=1;" parent="ssG9x24GmVvvbLI8zIeY-11" vertex="1">
          <mxGeometry y="156" width="200" height="26" as="geometry" />
        </mxCell>
        <mxCell id="ssG9x24GmVvvbLI8zIeY-20" value="+ data_iscrizione: attribute" style="text;strokeColor=none;fillColor=none;align=left;verticalAlign=top;spacingLeft=4;spacingRight=4;overflow=hidden;rotatable=0;points=[[0,0.5],[1,0.5]];portConstraint=eastwest;whiteSpace=wrap;html=1;" parent="ssG9x24GmVvvbLI8zIeY-11" vertex="1">
          <mxGeometry y="182" width="200" height="26" as="geometry" />
        </mxCell>
        <mxCell id="ssG9x24GmVvvbLI8zIeY-24" style="edgeStyle=orthogonalEdgeStyle;rounded=0;orthogonalLoop=1;jettySize=auto;html=1;entryX=1;entryY=0.5;entryDx=0;entryDy=0;" parent="1" source="ssG9x24GmVvvbLI8zIeY-8" target="ssG9x24GmVvvbLI8zIeY-12" edge="1">
          <mxGeometry relative="1" as="geometry">
            <Array as="points">
              <mxPoint x="320" y="189" />
              <mxPoint x="320" y="260" />
              <mxPoint x="230" y="260" />
            </Array>
          </mxGeometry>
        </mxCell>
        <mxCell id="ssG9x24GmVvvbLI8zIeY-25" value="Revisore" style="swimlane;fontStyle=0;childLayout=stackLayout;horizontal=1;startSize=26;fillColor=none;horizontalStack=0;resizeParent=1;resizeParentMax=0;resizeLast=0;collapsible=1;marginBottom=0;whiteSpace=wrap;html=1;" parent="1" vertex="1">
          <mxGeometry x="340" y="240" width="210" height="78" as="geometry" />
        </mxCell>
        <mxCell id="ssG9x24GmVvvbLI8zIeY-26" value="+ codice_tessera: varchar2" style="text;strokeColor=none;fillColor=none;align=left;verticalAlign=top;spacingLeft=4;spacingRight=4;overflow=hidden;rotatable=0;points=[[0,0.5],[1,0.5]];portConstraint=eastwest;whiteSpace=wrap;html=1;" parent="ssG9x24GmVvvbLI8zIeY-25" vertex="1">
          <mxGeometry y="26" width="210" height="26" as="geometry" />
        </mxCell>
        <mxCell id="ssG9x24GmVvvbLI8zIeY-27" value="+ data_attribuzione: data" style="text;strokeColor=none;fillColor=none;align=left;verticalAlign=top;spacingLeft=4;spacingRight=4;overflow=hidden;rotatable=0;points=[[0,0.5],[1,0.5]];portConstraint=eastwest;whiteSpace=wrap;html=1;" parent="ssG9x24GmVvvbLI8zIeY-25" vertex="1">
          <mxGeometry y="52" width="210" height="26" as="geometry" />
        </mxCell>
        <mxCell id="ssG9x24GmVvvbLI8zIeY-30" style="edgeStyle=orthogonalEdgeStyle;rounded=0;orthogonalLoop=1;jettySize=auto;html=1;entryX=1;entryY=0.5;entryDx=0;entryDy=0;fillColor=#1ba1e2;strokeColor=#006EAF;" parent="1" source="ssG9x24GmVvvbLI8zIeY-26" target="ssG9x24GmVvvbLI8zIeY-12" edge="1">
          <mxGeometry relative="1" as="geometry">
            <Array as="points">
              <mxPoint x="230" y="280" />
            </Array>
          </mxGeometry>
        </mxCell>
        <mxCell id="ssG9x24GmVvvbLI8zIeY-31" value="Specie" style="swimlane;fontStyle=0;childLayout=stackLayout;horizontal=1;startSize=26;fillColor=none;horizontalStack=0;resizeParent=1;resizeParentMax=0;resizeLast=0;collapsible=1;marginBottom=0;whiteSpace=wrap;html=1;" parent="1" vertex="1">
          <mxGeometry x="590" y="710" width="230" height="176" as="geometry" />
        </mxCell>
        <mxCell id="ssG9x24GmVvvbLI8zIeY-32" value="+ nome_schientifico: varchar2 &amp;lt;&amp;lt;pk&amp;gt;&amp;gt;" style="text;strokeColor=none;fillColor=none;align=left;verticalAlign=top;spacingLeft=4;spacingRight=4;overflow=hidden;rotatable=0;points=[[0,0.5],[1,0.5]];portConstraint=eastwest;whiteSpace=wrap;html=1;" parent="ssG9x24GmVvvbLI8zIeY-31" vertex="1">
          <mxGeometry y="26" width="230" height="26" as="geometry" />
        </mxCell>
        <mxCell id="ssG9x24GmVvvbLI8zIeY-33" value="+ nome_comune: varchar2" style="text;strokeColor=none;fillColor=none;align=left;verticalAlign=top;spacingLeft=4;spacingRight=4;overflow=hidden;rotatable=0;points=[[0,0.5],[1,0.5]];portConstraint=eastwest;whiteSpace=wrap;html=1;" parent="ssG9x24GmVvvbLI8zIeY-31" vertex="1">
          <mxGeometry y="52" width="230" height="20" as="geometry" />
        </mxCell>
        <mxCell id="ssG9x24GmVvvbLI8zIeY-34" value="+ stato_conservazione: varchar2" style="text;strokeColor=none;fillColor=none;align=left;verticalAlign=top;spacingLeft=4;spacingRight=4;overflow=hidden;rotatable=0;points=[[0,0.5],[1,0.5]];portConstraint=eastwest;whiteSpace=wrap;html=1;" parent="ssG9x24GmVvvbLI8zIeY-31" vertex="1">
          <mxGeometry y="72" width="230" height="26" as="geometry" />
        </mxCell>
        <mxCell id="ssG9x24GmVvvbLI8zIeY-36" value="+ famiglia: varchar2" style="text;strokeColor=none;fillColor=none;align=left;verticalAlign=top;spacingLeft=4;spacingRight=4;overflow=hidden;rotatable=0;points=[[0,0.5],[1,0.5]];portConstraint=eastwest;whiteSpace=wrap;html=1;" parent="ssG9x24GmVvvbLI8zIeY-31" vertex="1">
          <mxGeometry y="98" width="230" height="26" as="geometry" />
        </mxCell>
        <mxCell id="ssG9x24GmVvvbLI8zIeY-37" value="+ url_verso: varchar2" style="text;strokeColor=none;fillColor=none;align=left;verticalAlign=top;spacingLeft=4;spacingRight=4;overflow=hidden;rotatable=0;points=[[0,0.5],[1,0.5]];portConstraint=eastwest;whiteSpace=wrap;html=1;" parent="ssG9x24GmVvvbLI8zIeY-31" vertex="1">
          <mxGeometry y="124" width="230" height="26" as="geometry" />
        </mxCell>
        <mxCell id="ssG9x24GmVvvbLI8zIeY-38" value="+ url_immagine: varchar2" style="text;strokeColor=none;fillColor=none;align=left;verticalAlign=top;spacingLeft=4;spacingRight=4;overflow=hidden;rotatable=0;points=[[0,0.5],[1,0.5]];portConstraint=eastwest;whiteSpace=wrap;html=1;" parent="ssG9x24GmVvvbLI8zIeY-31" vertex="1">
          <mxGeometry y="150" width="230" height="26" as="geometry" />
        </mxCell>
        <mxCell id="ssG9x24GmVvvbLI8zIeY-39" value="Habitat" style="swimlane;fontStyle=0;childLayout=stackLayout;horizontal=1;startSize=26;fillColor=none;horizontalStack=0;resizeParent=1;resizeParentMax=0;resizeLast=0;collapsible=1;marginBottom=0;whiteSpace=wrap;html=1;" parent="1" vertex="1">
          <mxGeometry x="305" y="920" width="190" height="102" as="geometry" />
        </mxCell>
        <mxCell id="ssG9x24GmVvvbLI8zIeY-40" value="+ codice_eunis: varchar2 &amp;lt;&amp;lt;pk&amp;gt;&amp;gt;" style="text;strokeColor=none;fillColor=none;align=left;verticalAlign=top;spacingLeft=4;spacingRight=4;overflow=hidden;rotatable=0;points=[[0,0.5],[1,0.5]];portConstraint=eastwest;whiteSpace=wrap;html=1;" parent="ssG9x24GmVvvbLI8zIeY-39" vertex="1">
          <mxGeometry y="26" width="190" height="24" as="geometry" />
        </mxCell>
        <mxCell id="ssG9x24GmVvvbLI8zIeY-41" value="+ nome_habitat: varchar2" style="text;strokeColor=none;fillColor=none;align=left;verticalAlign=top;spacingLeft=4;spacingRight=4;overflow=hidden;rotatable=0;points=[[0,0.5],[1,0.5]];portConstraint=eastwest;whiteSpace=wrap;html=1;" parent="ssG9x24GmVvvbLI8zIeY-39" vertex="1">
          <mxGeometry y="50" width="190" height="26" as="geometry" />
        </mxCell>
        <mxCell id="ssG9x24GmVvvbLI8zIeY-42" value="+ url_descrizione: varchar2" style="text;strokeColor=none;fillColor=none;align=left;verticalAlign=top;spacingLeft=4;spacingRight=4;overflow=hidden;rotatable=0;points=[[0,0.5],[1,0.5]];portConstraint=eastwest;whiteSpace=wrap;html=1;" parent="ssG9x24GmVvvbLI8zIeY-39" vertex="1">
          <mxGeometry y="76" width="190" height="26" as="geometry" />
        </mxCell>
        <mxCell id="ssG9x24GmVvvbLI8zIeY-43" value="Località avvistamento" style="swimlane;fontStyle=0;childLayout=stackLayout;horizontal=1;startSize=26;fillColor=none;horizontalStack=0;resizeParent=1;resizeParentMax=0;resizeLast=0;collapsible=1;marginBottom=0;whiteSpace=wrap;html=1;" parent="1" vertex="1">
          <mxGeometry x="20" y="680" width="180" height="182" as="geometry" />
        </mxCell>
        <mxCell id="ssG9x24GmVvvbLI8zIeY-44" value="+ plus_code: varchar2 &amp;lt;&amp;lt;pk&amp;gt;&amp;gt;" style="text;strokeColor=none;fillColor=none;align=left;verticalAlign=top;spacingLeft=4;spacingRight=4;overflow=hidden;rotatable=0;points=[[0,0.5],[1,0.5]];portConstraint=eastwest;whiteSpace=wrap;html=1;" parent="ssG9x24GmVvvbLI8zIeY-43" vertex="1">
          <mxGeometry y="26" width="180" height="26" as="geometry" />
        </mxCell>
        <mxCell id="ssG9x24GmVvvbLI8zIeY-45" value="+ nome: varchar2" style="text;strokeColor=none;fillColor=none;align=left;verticalAlign=top;spacingLeft=4;spacingRight=4;overflow=hidden;rotatable=0;points=[[0,0.5],[1,0.5]];portConstraint=eastwest;whiteSpace=wrap;html=1;" parent="ssG9x24GmVvvbLI8zIeY-43" vertex="1">
          <mxGeometry y="52" width="180" height="26" as="geometry" />
        </mxCell>
        <mxCell id="ssG9x24GmVvvbLI8zIeY-46" value="+ area_protetta: number" style="text;strokeColor=none;fillColor=none;align=left;verticalAlign=top;spacingLeft=4;spacingRight=4;overflow=hidden;rotatable=0;points=[[0,0.5],[1,0.5]];portConstraint=eastwest;whiteSpace=wrap;html=1;" parent="ssG9x24GmVvvbLI8zIeY-43" vertex="1">
          <mxGeometry y="78" width="180" height="26" as="geometry" />
        </mxCell>
        <mxCell id="ssG9x24GmVvvbLI8zIeY-47" value="+ url_mappa: varchar2" style="text;strokeColor=none;fillColor=none;align=left;verticalAlign=top;spacingLeft=4;spacingRight=4;overflow=hidden;rotatable=0;points=[[0,0.5],[1,0.5]];portConstraint=eastwest;whiteSpace=wrap;html=1;" parent="ssG9x24GmVvvbLI8zIeY-43" vertex="1">
          <mxGeometry y="104" width="180" height="26" as="geometry" />
        </mxCell>
        <mxCell id="ssG9x24GmVvvbLI8zIeY-48" value="+ nome_regione: varchar2" style="text;strokeColor=none;fillColor=none;align=left;verticalAlign=top;spacingLeft=4;spacingRight=4;overflow=hidden;rotatable=0;points=[[0,0.5],[1,0.5]];portConstraint=eastwest;whiteSpace=wrap;html=1;" parent="ssG9x24GmVvvbLI8zIeY-43" vertex="1">
          <mxGeometry y="130" width="180" height="26" as="geometry" />
        </mxCell>
        <mxCell id="ssG9x24GmVvvbLI8zIeY-49" value="+ paese: varchar2" style="text;strokeColor=none;fillColor=none;align=left;verticalAlign=top;spacingLeft=4;spacingRight=4;overflow=hidden;rotatable=0;points=[[0,0.5],[1,0.5]];portConstraint=eastwest;whiteSpace=wrap;html=1;" parent="ssG9x24GmVvvbLI8zIeY-43" vertex="1">
          <mxGeometry y="156" width="180" height="26" as="geometry" />
        </mxCell>
        <mxCell id="ssG9x24GmVvvbLI8zIeY-52" value="Avvistamento" style="swimlane;fontStyle=0;childLayout=stackLayout;horizontal=1;startSize=26;fillColor=none;horizontalStack=0;resizeParent=1;resizeParentMax=0;resizeLast=0;collapsible=1;marginBottom=0;whiteSpace=wrap;html=1;" parent="1" vertex="1">
          <mxGeometry x="310" y="380" width="270" height="286" as="geometry" />
        </mxCell>
        <mxCell id="ssG9x24GmVvvbLI8zIeY-53" value="+ numero_avvistamento: number &amp;lt;&amp;lt;pk&amp;gt;&amp;gt;" style="text;strokeColor=none;fillColor=none;align=left;verticalAlign=top;spacingLeft=4;spacingRight=4;overflow=hidden;rotatable=0;points=[[0,0.5],[1,0.5]];portConstraint=eastwest;whiteSpace=wrap;html=1;" parent="ssG9x24GmVvvbLI8zIeY-52" vertex="1">
          <mxGeometry y="26" width="270" height="26" as="geometry" />
        </mxCell>
        <mxCell id="ssG9x24GmVvvbLI8zIeY-61" value="+ data_e_ora: data" style="text;strokeColor=none;fillColor=none;align=left;verticalAlign=top;spacingLeft=4;spacingRight=4;overflow=hidden;rotatable=0;points=[[0,0.5],[1,0.5]];portConstraint=eastwest;whiteSpace=wrap;html=1;" parent="ssG9x24GmVvvbLI8zIeY-52" vertex="1">
          <mxGeometry y="52" width="270" height="26" as="geometry" />
        </mxCell>
        <mxCell id="ssG9x24GmVvvbLI8zIeY-63" value="+ valutazione:&amp;nbsp;varchar2" style="text;strokeColor=none;fillColor=none;align=left;verticalAlign=top;spacingLeft=4;spacingRight=4;overflow=hidden;rotatable=0;points=[[0,0.5],[1,0.5]];portConstraint=eastwest;whiteSpace=wrap;html=1;" parent="ssG9x24GmVvvbLI8zIeY-52" vertex="1">
          <mxGeometry y="78" width="270" height="26" as="geometry" />
        </mxCell>
        <mxCell id="ssG9x24GmVvvbLI8zIeY-62" value="+ data_revisione: data" style="text;strokeColor=none;fillColor=none;align=left;verticalAlign=top;spacingLeft=4;spacingRight=4;overflow=hidden;rotatable=0;points=[[0,0.5],[1,0.5]];portConstraint=eastwest;whiteSpace=wrap;html=1;" parent="ssG9x24GmVvvbLI8zIeY-52" vertex="1">
          <mxGeometry y="104" width="270" height="26" as="geometry" />
        </mxCell>
        <mxCell id="ssG9x24GmVvvbLI8zIeY-65" value="+ codice_tessera_revisore:&amp;nbsp;varchar2" style="text;strokeColor=none;fillColor=none;align=left;verticalAlign=top;spacingLeft=4;spacingRight=4;overflow=hidden;rotatable=0;points=[[0,0.5],[1,0.5]];portConstraint=eastwest;whiteSpace=wrap;html=1;" parent="ssG9x24GmVvvbLI8zIeY-52" vertex="1">
          <mxGeometry y="130" width="270" height="26" as="geometry" />
        </mxCell>
        <mxCell id="ssG9x24GmVvvbLI8zIeY-64" value="+ codice_tessera_osservatore:&amp;nbsp;varchar2 &amp;lt;&amp;lt;pk&amp;gt;&amp;gt;" style="text;strokeColor=none;fillColor=none;align=left;verticalAlign=top;spacingLeft=4;spacingRight=4;overflow=hidden;rotatable=0;points=[[0,0.5],[1,0.5]];portConstraint=eastwest;whiteSpace=wrap;html=1;" parent="ssG9x24GmVvvbLI8zIeY-52" vertex="1">
          <mxGeometry y="156" width="270" height="26" as="geometry" />
        </mxCell>
        <mxCell id="ssG9x24GmVvvbLI8zIeY-67" value="+ plus_code: varchar2" style="text;strokeColor=none;fillColor=none;align=left;verticalAlign=top;spacingLeft=4;spacingRight=4;overflow=hidden;rotatable=0;points=[[0,0.5],[1,0.5]];portConstraint=eastwest;whiteSpace=wrap;html=1;" parent="ssG9x24GmVvvbLI8zIeY-52" vertex="1">
          <mxGeometry y="182" width="270" height="26" as="geometry" />
        </mxCell>
        <mxCell id="ssG9x24GmVvvbLI8zIeY-66" value="+ meteo: varchar2" style="text;strokeColor=none;fillColor=none;align=left;verticalAlign=top;spacingLeft=4;spacingRight=4;overflow=hidden;rotatable=0;points=[[0,0.5],[1,0.5]];portConstraint=eastwest;whiteSpace=wrap;html=1;" parent="ssG9x24GmVvvbLI8zIeY-52" vertex="1">
          <mxGeometry y="208" width="270" height="26" as="geometry" />
        </mxCell>
        <mxCell id="ssG9x24GmVvvbLI8zIeY-54" value="+ temperatura: number" style="text;strokeColor=none;fillColor=none;align=left;verticalAlign=top;spacingLeft=4;spacingRight=4;overflow=hidden;rotatable=0;points=[[0,0.5],[1,0.5]];portConstraint=eastwest;whiteSpace=wrap;html=1;" parent="ssG9x24GmVvvbLI8zIeY-52" vertex="1">
          <mxGeometry y="234" width="270" height="26" as="geometry" />
        </mxCell>
        <mxCell id="ssG9x24GmVvvbLI8zIeY-55" value="+ umidità: number" style="text;strokeColor=none;fillColor=none;align=left;verticalAlign=top;spacingLeft=4;spacingRight=4;overflow=hidden;rotatable=0;points=[[0,0.5],[1,0.5]];portConstraint=eastwest;whiteSpace=wrap;html=1;" parent="ssG9x24GmVvvbLI8zIeY-52" vertex="1">
          <mxGeometry y="260" width="270" height="26" as="geometry" />
        </mxCell>
        <mxCell id="ssG9x24GmVvvbLI8zIeY-71" style="edgeStyle=orthogonalEdgeStyle;rounded=0;orthogonalLoop=1;jettySize=auto;html=1;entryX=1;entryY=0.5;entryDx=0;entryDy=0;" parent="1" source="ssG9x24GmVvvbLI8zIeY-67" target="ssG9x24GmVvvbLI8zIeY-44" edge="1">
          <mxGeometry relative="1" as="geometry">
            <mxPoint x="250" y="935" as="targetPoint" />
            <Array as="points">
              <mxPoint x="270" y="575" />
              <mxPoint x="270" y="710" />
              <mxPoint x="200" y="710" />
            </Array>
          </mxGeometry>
        </mxCell>
        <mxCell id="ssG9x24GmVvvbLI8zIeY-78" value="Esemplare" style="swimlane;fontStyle=0;childLayout=stackLayout;horizontal=1;startSize=26;fillColor=none;horizontalStack=0;resizeParent=1;resizeParentMax=0;resizeLast=0;collapsible=1;marginBottom=0;whiteSpace=wrap;html=1;" parent="1" vertex="1">
          <mxGeometry x="645" y="449" width="270" height="204" as="geometry" />
        </mxCell>
        <mxCell id="ssG9x24GmVvvbLI8zIeY-79" value="+ numero_avvistamento: number &amp;lt;&amp;lt;pk&amp;gt;&amp;gt;" style="text;strokeColor=none;fillColor=none;align=left;verticalAlign=top;spacingLeft=4;spacingRight=4;overflow=hidden;rotatable=0;points=[[0,0.5],[1,0.5]];portConstraint=eastwest;whiteSpace=wrap;html=1;" parent="ssG9x24GmVvvbLI8zIeY-78" vertex="1">
          <mxGeometry y="26" width="270" height="26" as="geometry" />
        </mxCell>
        <mxCell id="ssG9x24GmVvvbLI8zIeY-82" value="+ numero_esemplare: number &amp;lt;&amp;lt;pk&amp;gt;&amp;gt;" style="text;strokeColor=none;fillColor=none;align=left;verticalAlign=top;spacingLeft=4;spacingRight=4;overflow=hidden;rotatable=0;points=[[0,0.5],[1,0.5]];portConstraint=eastwest;whiteSpace=wrap;html=1;" parent="ssG9x24GmVvvbLI8zIeY-78" vertex="1">
          <mxGeometry y="52" width="270" height="26" as="geometry" />
        </mxCell>
        <mxCell id="ssG9x24GmVvvbLI8zIeY-84" value="+ maturità: varchar2" style="text;strokeColor=none;fillColor=none;align=left;verticalAlign=top;spacingLeft=4;spacingRight=4;overflow=hidden;rotatable=0;points=[[0,0.5],[1,0.5]];portConstraint=eastwest;whiteSpace=wrap;html=1;" parent="ssG9x24GmVvvbLI8zIeY-78" vertex="1">
          <mxGeometry y="78" width="270" height="26" as="geometry" />
        </mxCell>
        <mxCell id="ssG9x24GmVvvbLI8zIeY-80" value="+ condizioni_salute: varchar2" style="text;strokeColor=none;fillColor=none;align=left;verticalAlign=top;spacingLeft=4;spacingRight=4;overflow=hidden;rotatable=0;points=[[0,0.5],[1,0.5]];portConstraint=eastwest;whiteSpace=wrap;html=1;" parent="ssG9x24GmVvvbLI8zIeY-78" vertex="1">
          <mxGeometry y="104" width="270" height="22" as="geometry" />
        </mxCell>
        <mxCell id="ssG9x24GmVvvbLI8zIeY-83" value="+ sesso: varchar2" style="text;strokeColor=none;fillColor=none;align=left;verticalAlign=top;spacingLeft=4;spacingRight=4;overflow=hidden;rotatable=0;points=[[0,0.5],[1,0.5]];portConstraint=eastwest;whiteSpace=wrap;html=1;" parent="ssG9x24GmVvvbLI8zIeY-78" vertex="1">
          <mxGeometry y="126" width="270" height="26" as="geometry" />
        </mxCell>
        <mxCell id="ssG9x24GmVvvbLI8zIeY-81" value="+ nome_schientifico_specie: varchar2" style="text;strokeColor=none;fillColor=none;align=left;verticalAlign=top;spacingLeft=4;spacingRight=4;overflow=hidden;rotatable=0;points=[[0,0.5],[1,0.5]];portConstraint=eastwest;whiteSpace=wrap;html=1;" parent="ssG9x24GmVvvbLI8zIeY-78" vertex="1">
          <mxGeometry y="152" width="270" height="26" as="geometry" />
        </mxCell>
        <mxCell id="vofEhuO4llMSFf9ykux3-1" value="+ codice_tessera_osservatore: varchar2 &amp;lt;&amp;lt;pk&amp;gt;&amp;gt;" style="text;strokeColor=none;fillColor=none;align=left;verticalAlign=top;spacingLeft=4;spacingRight=4;overflow=hidden;rotatable=0;points=[[0,0.5],[1,0.5]];portConstraint=eastwest;whiteSpace=wrap;html=1;" vertex="1" parent="ssG9x24GmVvvbLI8zIeY-78">
          <mxGeometry y="178" width="270" height="26" as="geometry" />
        </mxCell>
        <mxCell id="ssG9x24GmVvvbLI8zIeY-85" style="edgeStyle=orthogonalEdgeStyle;rounded=0;orthogonalLoop=1;jettySize=auto;html=1;entryX=1;entryY=0.5;entryDx=0;entryDy=0;fillColor=#a20025;strokeColor=#6F0000;" parent="1" source="ssG9x24GmVvvbLI8zIeY-79" target="ssG9x24GmVvvbLI8zIeY-53" edge="1">
          <mxGeometry relative="1" as="geometry">
            <Array as="points">
              <mxPoint x="610" y="488" />
              <mxPoint x="610" y="419" />
            </Array>
          </mxGeometry>
        </mxCell>
        <mxCell id="ssG9x24GmVvvbLI8zIeY-87" style="edgeStyle=orthogonalEdgeStyle;rounded=0;orthogonalLoop=1;jettySize=auto;html=1;entryX=1;entryY=0.25;entryDx=0;entryDy=0;" parent="1" source="ssG9x24GmVvvbLI8zIeY-81" target="ssG9x24GmVvvbLI8zIeY-31" edge="1">
          <mxGeometry relative="1" as="geometry" />
        </mxCell>
        <mxCell id="ssG9x24GmVvvbLI8zIeY-88" value="Media" style="swimlane;fontStyle=0;childLayout=stackLayout;horizontal=1;startSize=26;fillColor=none;horizontalStack=0;resizeParent=1;resizeParentMax=0;resizeLast=0;collapsible=1;marginBottom=0;whiteSpace=wrap;html=1;" parent="1" vertex="1">
          <mxGeometry x="-40" y="459" width="270" height="182" as="geometry" />
        </mxCell>
        <mxCell id="ssG9x24GmVvvbLI8zIeY-89" value="+ numero_avvistamento: number &amp;lt;&amp;lt;pk&amp;gt;&amp;gt;" style="text;strokeColor=none;fillColor=none;align=left;verticalAlign=top;spacingLeft=4;spacingRight=4;overflow=hidden;rotatable=0;points=[[0,0.5],[1,0.5]];portConstraint=eastwest;whiteSpace=wrap;html=1;" parent="ssG9x24GmVvvbLI8zIeY-88" vertex="1">
          <mxGeometry y="26" width="270" height="26" as="geometry" />
        </mxCell>
        <mxCell id="ssG9x24GmVvvbLI8zIeY-92" value="+ titolo_media: varchar2 &amp;lt;&amp;lt;pk&amp;gt;&amp;gt;" style="text;strokeColor=none;fillColor=none;align=left;verticalAlign=top;spacingLeft=4;spacingRight=4;overflow=hidden;rotatable=0;points=[[0,0.5],[1,0.5]];portConstraint=eastwest;whiteSpace=wrap;html=1;" parent="ssG9x24GmVvvbLI8zIeY-88" vertex="1">
          <mxGeometry y="52" width="270" height="26" as="geometry" />
        </mxCell>
        <mxCell id="ssG9x24GmVvvbLI8zIeY-90" value="+ titolo_media: varchar2" style="text;strokeColor=none;fillColor=none;align=left;verticalAlign=top;spacingLeft=4;spacingRight=4;overflow=hidden;rotatable=0;points=[[0,0.5],[1,0.5]];portConstraint=eastwest;whiteSpace=wrap;html=1;" parent="ssG9x24GmVvvbLI8zIeY-88" vertex="1">
          <mxGeometry y="78" width="270" height="26" as="geometry" />
        </mxCell>
        <mxCell id="ssG9x24GmVvvbLI8zIeY-93" value="+ url_media: varchar2" style="text;strokeColor=none;fillColor=none;align=left;verticalAlign=top;spacingLeft=4;spacingRight=4;overflow=hidden;rotatable=0;points=[[0,0.5],[1,0.5]];portConstraint=eastwest;whiteSpace=wrap;html=1;" parent="ssG9x24GmVvvbLI8zIeY-88" vertex="1">
          <mxGeometry y="104" width="270" height="26" as="geometry" />
        </mxCell>
        <mxCell id="ssG9x24GmVvvbLI8zIeY-91" value="+ formato_media: varchar2" style="text;strokeColor=none;fillColor=none;align=left;verticalAlign=top;spacingLeft=4;spacingRight=4;overflow=hidden;rotatable=0;points=[[0,0.5],[1,0.5]];portConstraint=eastwest;whiteSpace=wrap;html=1;" parent="ssG9x24GmVvvbLI8zIeY-88" vertex="1">
          <mxGeometry y="130" width="270" height="26" as="geometry" />
        </mxCell>
        <mxCell id="vofEhuO4llMSFf9ykux3-7" value="+ codice_tessera_osservatore:&amp;nbsp;varchar2 &amp;lt;&amp;lt;pk&amp;gt;&amp;gt;" style="text;strokeColor=none;fillColor=none;align=left;verticalAlign=top;spacingLeft=4;spacingRight=4;overflow=hidden;rotatable=0;points=[[0,0.5],[1,0.5]];portConstraint=eastwest;whiteSpace=wrap;html=1;" vertex="1" parent="ssG9x24GmVvvbLI8zIeY-88">
          <mxGeometry y="156" width="270" height="26" as="geometry" />
        </mxCell>
        <mxCell id="ssG9x24GmVvvbLI8zIeY-96" style="edgeStyle=orthogonalEdgeStyle;rounded=0;orthogonalLoop=1;jettySize=auto;html=1;entryX=1;entryY=0.5;entryDx=0;entryDy=0;fillColor=#0050ef;strokeColor=#001DBC;" parent="1" source="ssG9x24GmVvvbLI8zIeY-48" target="ssG9x24GmVvvbLI8zIeY-2" edge="1">
          <mxGeometry relative="1" as="geometry" />
        </mxCell>
        <mxCell id="ssG9x24GmVvvbLI8zIeY-97" style="edgeStyle=orthogonalEdgeStyle;rounded=0;orthogonalLoop=1;jettySize=auto;html=1;exitX=1;exitY=0.5;exitDx=0;exitDy=0;entryX=1;entryY=0.5;entryDx=0;entryDy=0;" parent="1" source="ssG9x24GmVvvbLI8zIeY-49" target="ssG9x24GmVvvbLI8zIeY-1" edge="1">
          <mxGeometry relative="1" as="geometry">
            <Array as="points">
              <mxPoint x="260" y="849" />
              <mxPoint x="260" y="962" />
            </Array>
          </mxGeometry>
        </mxCell>
        <mxCell id="ssG9x24GmVvvbLI8zIeY-99" value="Pattern migratori" style="swimlane;fontStyle=0;childLayout=stackLayout;horizontal=1;startSize=26;fillColor=none;horizontalStack=0;resizeParent=1;resizeParentMax=0;resizeLast=0;collapsible=1;marginBottom=0;whiteSpace=wrap;html=1;" parent="1" vertex="1">
          <mxGeometry x="550" y="920" width="260" height="156" as="geometry" />
        </mxCell>
        <mxCell id="ssG9x24GmVvvbLI8zIeY-100" value="+ nome_schientifico_specie: varchar2 &amp;lt;&amp;lt;pk&amp;gt;&amp;gt;" style="text;strokeColor=none;fillColor=none;align=left;verticalAlign=top;spacingLeft=4;spacingRight=4;overflow=hidden;rotatable=0;points=[[0,0.5],[1,0.5]];portConstraint=eastwest;whiteSpace=wrap;html=1;" parent="ssG9x24GmVvvbLI8zIeY-99" vertex="1">
          <mxGeometry y="26" width="260" height="26" as="geometry" />
        </mxCell>
        <mxCell id="ssG9x24GmVvvbLI8zIeY-101" value="+ codice_eunis_habitat: varchar2 &amp;lt;&amp;lt;pk&amp;gt;&amp;gt;" style="text;strokeColor=none;fillColor=none;align=left;verticalAlign=top;spacingLeft=4;spacingRight=4;overflow=hidden;rotatable=0;points=[[0,0.5],[1,0.5]];portConstraint=eastwest;whiteSpace=wrap;html=1;" parent="ssG9x24GmVvvbLI8zIeY-99" vertex="1">
          <mxGeometry y="52" width="260" height="26" as="geometry" />
        </mxCell>
        <mxCell id="ssG9x24GmVvvbLI8zIeY-102" value="+ motivo_migrazione: varchar2 &amp;lt;&amp;lt;pk&amp;gt;&amp;gt;" style="text;strokeColor=none;fillColor=none;align=left;verticalAlign=top;spacingLeft=4;spacingRight=4;overflow=hidden;rotatable=0;points=[[0,0.5],[1,0.5]];portConstraint=eastwest;whiteSpace=wrap;html=1;" parent="ssG9x24GmVvvbLI8zIeY-99" vertex="1">
          <mxGeometry y="78" width="260" height="26" as="geometry" />
        </mxCell>
        <mxCell id="ssG9x24GmVvvbLI8zIeY-105" value="+ periodo_inizio: number" style="text;strokeColor=none;fillColor=none;align=left;verticalAlign=top;spacingLeft=4;spacingRight=4;overflow=hidden;rotatable=0;points=[[0,0.5],[1,0.5]];portConstraint=eastwest;whiteSpace=wrap;html=1;" parent="ssG9x24GmVvvbLI8zIeY-99" vertex="1">
          <mxGeometry y="104" width="260" height="26" as="geometry" />
        </mxCell>
        <mxCell id="ssG9x24GmVvvbLI8zIeY-106" value="+ periodo_fine: number" style="text;strokeColor=none;fillColor=none;align=left;verticalAlign=top;spacingLeft=4;spacingRight=4;overflow=hidden;rotatable=0;points=[[0,0.5],[1,0.5]];portConstraint=eastwest;whiteSpace=wrap;html=1;" parent="ssG9x24GmVvvbLI8zIeY-99" vertex="1">
          <mxGeometry y="130" width="260" height="26" as="geometry" />
        </mxCell>
        <mxCell id="ssG9x24GmVvvbLI8zIeY-112" style="edgeStyle=orthogonalEdgeStyle;rounded=0;orthogonalLoop=1;jettySize=auto;html=1;" parent="1" source="ssG9x24GmVvvbLI8zIeY-89" target="ssG9x24GmVvvbLI8zIeY-53" edge="1">
          <mxGeometry relative="1" as="geometry" />
        </mxCell>
        <mxCell id="ssG9x24GmVvvbLI8zIeY-115" style="edgeStyle=orthogonalEdgeStyle;rounded=0;orthogonalLoop=1;jettySize=auto;html=1;entryX=1;entryY=0.25;entryDx=0;entryDy=0;fillColor=#a20025;strokeColor=#6F0000;" parent="1" source="ssG9x24GmVvvbLI8zIeY-100" target="ssG9x24GmVvvbLI8zIeY-31" edge="1">
          <mxGeometry relative="1" as="geometry" />
        </mxCell>
        <mxCell id="ssG9x24GmVvvbLI8zIeY-116" style="edgeStyle=orthogonalEdgeStyle;rounded=0;orthogonalLoop=1;jettySize=auto;html=1;entryX=1;entryY=0.5;entryDx=0;entryDy=0;" parent="1" source="ssG9x24GmVvvbLI8zIeY-101" target="ssG9x24GmVvvbLI8zIeY-40" edge="1">
          <mxGeometry relative="1" as="geometry" />
        </mxCell>
        <mxCell id="ssG9x24GmVvvbLI8zIeY-117" value="Badge" style="swimlane;fontStyle=0;childLayout=stackLayout;horizontal=1;startSize=26;fillColor=none;horizontalStack=0;resizeParent=1;resizeParentMax=0;resizeLast=0;collapsible=1;marginBottom=0;whiteSpace=wrap;html=1;" parent="1" vertex="1">
          <mxGeometry y="60" width="240" height="130" as="geometry" />
        </mxCell>
        <mxCell id="ssG9x24GmVvvbLI8zIeY-118" value="+ nome_badge: varchar2 &amp;lt;&amp;lt;pk&amp;gt;&amp;gt;" style="text;strokeColor=none;fillColor=none;align=left;verticalAlign=top;spacingLeft=4;spacingRight=4;overflow=hidden;rotatable=0;points=[[0,0.5],[1,0.5]];portConstraint=eastwest;whiteSpace=wrap;html=1;" parent="ssG9x24GmVvvbLI8zIeY-117" vertex="1">
          <mxGeometry y="26" width="240" height="26" as="geometry" />
        </mxCell>
        <mxCell id="ssG9x24GmVvvbLI8zIeY-119" value="+ codice_tessera_socio: varchar2 &amp;lt;&amp;lt;pk&amp;gt;&amp;gt;" style="text;strokeColor=none;fillColor=none;align=left;verticalAlign=top;spacingLeft=4;spacingRight=4;overflow=hidden;rotatable=0;points=[[0,0.5],[1,0.5]];portConstraint=eastwest;whiteSpace=wrap;html=1;" parent="ssG9x24GmVvvbLI8zIeY-117" vertex="1">
          <mxGeometry y="52" width="240" height="26" as="geometry" />
        </mxCell>
        <mxCell id="ssG9x24GmVvvbLI8zIeY-120" value="+ data_assegnazione: data" style="text;strokeColor=none;fillColor=none;align=left;verticalAlign=top;spacingLeft=4;spacingRight=4;overflow=hidden;rotatable=0;points=[[0,0.5],[1,0.5]];portConstraint=eastwest;whiteSpace=wrap;html=1;" parent="ssG9x24GmVvvbLI8zIeY-117" vertex="1">
          <mxGeometry y="78" width="240" height="26" as="geometry" />
        </mxCell>
        <mxCell id="ssG9x24GmVvvbLI8zIeY-121" value="+ url_badge: varchar2" style="text;strokeColor=none;fillColor=none;align=left;verticalAlign=top;spacingLeft=4;spacingRight=4;overflow=hidden;rotatable=0;points=[[0,0.5],[1,0.5]];portConstraint=eastwest;whiteSpace=wrap;html=1;" parent="ssG9x24GmVvvbLI8zIeY-117" vertex="1">
          <mxGeometry y="104" width="240" height="26" as="geometry" />
        </mxCell>
        <mxCell id="ssG9x24GmVvvbLI8zIeY-122" style="edgeStyle=orthogonalEdgeStyle;rounded=0;orthogonalLoop=1;jettySize=auto;html=1;entryX=1;entryY=0.5;entryDx=0;entryDy=0;fillColor=#008a00;strokeColor=#005700;" parent="1" source="ssG9x24GmVvvbLI8zIeY-119" target="ssG9x24GmVvvbLI8zIeY-12" edge="1">
          <mxGeometry relative="1" as="geometry" />
        </mxCell>
        <mxCell id="ssG9x24GmVvvbLI8zIeY-123" value="Dispositivo di richiamo" style="swimlane;fontStyle=0;childLayout=stackLayout;horizontal=1;startSize=26;fillColor=none;horizontalStack=0;resizeParent=1;resizeParentMax=0;resizeLast=0;collapsible=1;marginBottom=0;whiteSpace=wrap;html=1;" parent="1" vertex="1">
          <mxGeometry x="640" y="260" width="270" height="156" as="geometry" />
        </mxCell>
        <mxCell id="ssG9x24GmVvvbLI8zIeY-124" value="+ numero_avvistamento: number &amp;lt;&amp;lt;pk&amp;gt;&amp;gt;" style="text;strokeColor=none;fillColor=none;align=left;verticalAlign=top;spacingLeft=4;spacingRight=4;overflow=hidden;rotatable=0;points=[[0,0.5],[1,0.5]];portConstraint=eastwest;whiteSpace=wrap;html=1;" parent="ssG9x24GmVvvbLI8zIeY-123" vertex="1">
          <mxGeometry y="26" width="270" height="26" as="geometry" />
        </mxCell>
        <mxCell id="ssG9x24GmVvvbLI8zIeY-125" value="+ modello: varchar2 &amp;lt;&amp;lt;pk&amp;gt;&amp;gt;" style="text;strokeColor=none;fillColor=none;align=left;verticalAlign=top;spacingLeft=4;spacingRight=4;overflow=hidden;rotatable=0;points=[[0,0.5],[1,0.5]];portConstraint=eastwest;whiteSpace=wrap;html=1;" parent="ssG9x24GmVvvbLI8zIeY-123" vertex="1">
          <mxGeometry y="52" width="270" height="26" as="geometry" />
        </mxCell>
        <mxCell id="ssG9x24GmVvvbLI8zIeY-126" value="+ marca: varchar2 &amp;lt;&amp;lt;pk&amp;gt;&amp;gt;" style="text;strokeColor=none;fillColor=none;align=left;verticalAlign=top;spacingLeft=4;spacingRight=4;overflow=hidden;rotatable=0;points=[[0,0.5],[1,0.5]];portConstraint=eastwest;whiteSpace=wrap;html=1;" parent="ssG9x24GmVvvbLI8zIeY-123" vertex="1">
          <mxGeometry y="78" width="270" height="26" as="geometry" />
        </mxCell>
        <mxCell id="ssG9x24GmVvvbLI8zIeY-128" value="+ tipo_di_richiamo: varchar2" style="text;strokeColor=none;fillColor=none;align=left;verticalAlign=top;spacingLeft=4;spacingRight=4;overflow=hidden;rotatable=0;points=[[0,0.5],[1,0.5]];portConstraint=eastwest;whiteSpace=wrap;html=1;" parent="ssG9x24GmVvvbLI8zIeY-123" vertex="1">
          <mxGeometry y="104" width="270" height="26" as="geometry" />
        </mxCell>
        <mxCell id="vofEhuO4llMSFf9ykux3-5" value="+ codice_tessera_osservatore: varchar2 &amp;lt;&amp;lt;pk&amp;gt;&amp;gt;" style="text;strokeColor=none;fillColor=none;align=left;verticalAlign=top;spacingLeft=4;spacingRight=4;overflow=hidden;rotatable=0;points=[[0,0.5],[1,0.5]];portConstraint=eastwest;whiteSpace=wrap;html=1;" vertex="1" parent="ssG9x24GmVvvbLI8zIeY-123">
          <mxGeometry y="130" width="270" height="26" as="geometry" />
        </mxCell>
        <mxCell id="ssG9x24GmVvvbLI8zIeY-130" style="edgeStyle=orthogonalEdgeStyle;rounded=0;orthogonalLoop=1;jettySize=auto;html=1;entryX=1;entryY=0.5;entryDx=0;entryDy=0;fillColor=#008a00;strokeColor=#005700;exitX=0;exitY=0.5;exitDx=0;exitDy=0;" parent="1" source="ssG9x24GmVvvbLI8zIeY-124" target="ssG9x24GmVvvbLI8zIeY-53" edge="1">
          <mxGeometry relative="1" as="geometry">
            <Array as="points">
              <mxPoint x="610" y="299" />
              <mxPoint x="610" y="410" />
              <mxPoint x="580" y="410" />
            </Array>
            <mxPoint x="630" y="300" as="sourcePoint" />
          </mxGeometry>
        </mxCell>
        <mxCell id="ssG9x24GmVvvbLI8zIeY-131" value="Associazione_località_habitat" style="swimlane;fontStyle=0;childLayout=stackLayout;horizontal=1;startSize=26;fillColor=none;horizontalStack=0;resizeParent=1;resizeParentMax=0;resizeLast=0;collapsible=1;marginBottom=0;whiteSpace=wrap;html=1;" parent="1" vertex="1">
          <mxGeometry x="305" y="770" width="230" height="78" as="geometry" />
        </mxCell>
        <mxCell id="ssG9x24GmVvvbLI8zIeY-132" value="+ plus_code: varchar2 &amp;lt;&amp;lt;pk&amp;gt;&amp;gt;" style="text;strokeColor=none;fillColor=none;align=left;verticalAlign=top;spacingLeft=4;spacingRight=4;overflow=hidden;rotatable=0;points=[[0,0.5],[1,0.5]];portConstraint=eastwest;whiteSpace=wrap;html=1;" parent="ssG9x24GmVvvbLI8zIeY-131" vertex="1">
          <mxGeometry y="26" width="230" height="26" as="geometry" />
        </mxCell>
        <mxCell id="ssG9x24GmVvvbLI8zIeY-133" value="+ codice_eunis: varchar2 &amp;lt;&amp;lt;pk&amp;gt;&amp;gt;" style="text;strokeColor=none;fillColor=none;align=left;verticalAlign=top;spacingLeft=4;spacingRight=4;overflow=hidden;rotatable=0;points=[[0,0.5],[1,0.5]];portConstraint=eastwest;whiteSpace=wrap;html=1;" parent="ssG9x24GmVvvbLI8zIeY-131" vertex="1">
          <mxGeometry y="52" width="230" height="26" as="geometry" />
        </mxCell>
        <mxCell id="ssG9x24GmVvvbLI8zIeY-135" style="edgeStyle=orthogonalEdgeStyle;rounded=0;orthogonalLoop=1;jettySize=auto;html=1;entryX=1;entryY=0.5;entryDx=0;entryDy=0;fillColor=#008a00;strokeColor=#005700;" parent="1" source="ssG9x24GmVvvbLI8zIeY-132" target="ssG9x24GmVvvbLI8zIeY-44" edge="1">
          <mxGeometry relative="1" as="geometry">
            <Array as="points">
              <mxPoint x="253" y="809" />
              <mxPoint x="253" y="720" />
            </Array>
          </mxGeometry>
        </mxCell>
        <mxCell id="ssG9x24GmVvvbLI8zIeY-136" style="edgeStyle=orthogonalEdgeStyle;rounded=0;orthogonalLoop=1;jettySize=auto;html=1;entryX=0;entryY=0.5;entryDx=0;entryDy=0;" parent="1" source="ssG9x24GmVvvbLI8zIeY-133" target="ssG9x24GmVvvbLI8zIeY-40" edge="1">
          <mxGeometry relative="1" as="geometry" />
        </mxCell>
        <mxCell id="vofEhuO4llMSFf9ykux3-2" style="edgeStyle=orthogonalEdgeStyle;rounded=0;orthogonalLoop=1;jettySize=auto;html=1;entryX=1;entryY=0.5;entryDx=0;entryDy=0;fillColor=#60a917;strokeColor=#2D7600;" edge="1" parent="1" source="vofEhuO4llMSFf9ykux3-1" target="ssG9x24GmVvvbLI8zIeY-64">
          <mxGeometry relative="1" as="geometry">
            <Array as="points">
              <mxPoint x="600" y="640" />
              <mxPoint x="600" y="549" />
            </Array>
          </mxGeometry>
        </mxCell>
        <mxCell id="vofEhuO4llMSFf9ykux3-4" style="edgeStyle=orthogonalEdgeStyle;rounded=0;orthogonalLoop=1;jettySize=auto;html=1;exitX=0;exitY=0.5;exitDx=0;exitDy=0;entryX=1;entryY=0.5;entryDx=0;entryDy=0;fillColor=#1ba1e2;strokeColor=#006EAF;" edge="1" parent="1" source="ssG9x24GmVvvbLI8zIeY-64" target="ssG9x24GmVvvbLI8zIeY-8">
          <mxGeometry relative="1" as="geometry">
            <Array as="points">
              <mxPoint x="290" y="549" />
              <mxPoint x="290" y="369" />
              <mxPoint x="560" y="369" />
              <mxPoint x="560" y="189" />
            </Array>
          </mxGeometry>
        </mxCell>
        <mxCell id="vofEhuO4llMSFf9ykux3-6" style="edgeStyle=orthogonalEdgeStyle;rounded=0;orthogonalLoop=1;jettySize=auto;html=1;entryX=1;entryY=0.5;entryDx=0;entryDy=0;fillColor=#1ba1e2;strokeColor=#006EAF;" edge="1" parent="1" source="vofEhuO4llMSFf9ykux3-5" target="ssG9x24GmVvvbLI8zIeY-64">
          <mxGeometry relative="1" as="geometry">
            <Array as="points">
              <mxPoint x="630" y="403" />
              <mxPoint x="630" y="540" />
              <mxPoint x="580" y="540" />
            </Array>
          </mxGeometry>
        </mxCell>
        <mxCell id="vofEhuO4llMSFf9ykux3-8" style="edgeStyle=orthogonalEdgeStyle;rounded=0;orthogonalLoop=1;jettySize=auto;html=1;exitX=1;exitY=0.5;exitDx=0;exitDy=0;entryX=1;entryY=0.5;entryDx=0;entryDy=0;" edge="1" parent="1" source="ssG9x24GmVvvbLI8zIeY-65" target="ssG9x24GmVvvbLI8zIeY-26">
          <mxGeometry relative="1" as="geometry" />
        </mxCell>
        <mxCell id="lqUQ7vL2pdb2mPuV4aF3-4" style="edgeStyle=orthogonalEdgeStyle;rounded=0;orthogonalLoop=1;jettySize=auto;html=1;entryX=-0.011;entryY=0.769;entryDx=0;entryDy=0;entryPerimeter=0;fillColor=#60a917;strokeColor=#2D7600;" edge="1" parent="1" source="vofEhuO4llMSFf9ykux3-7" target="ssG9x24GmVvvbLI8zIeY-64">
          <mxGeometry relative="1" as="geometry">
            <Array as="points">
              <mxPoint x="260" y="628" />
              <mxPoint x="260" y="556" />
            </Array>
          </mxGeometry>
        </mxCell>
      </root>
    </mxGraphModel>
  </diagram>
  <diagram id="ZEojHLFj_JXiDPDdFaiO" name="Page-3">
    <mxGraphModel dx="603" dy="503" grid="1" gridSize="10" guides="1" tooltips="1" connect="1" arrows="1" fold="1" page="1" pageScale="1" pageWidth="850" pageHeight="1100" math="0" shadow="0">
      <root>
        <mxCell id="0" />
        <mxCell id="1" parent="0" />
        <mxCell id="6qO2nDXOa2ABBh6Tvv1o-2" value="" style="rounded=0;whiteSpace=wrap;html=1;" parent="1" vertex="1">
          <mxGeometry x="170" y="160" width="300" height="250" as="geometry" />
        </mxCell>
        <mxCell id="6qO2nDXOa2ABBh6Tvv1o-3" value="Revisore" style="shape=umlActor;verticalLabelPosition=bottom;verticalAlign=top;html=1;outlineConnect=0;" parent="1" vertex="1">
          <mxGeometry x="80" y="250" width="30" height="60" as="geometry" />
        </mxCell>
        <mxCell id="6qO2nDXOa2ABBh6Tvv1o-8" value="&lt;div&gt;revisione&lt;/div&gt;&lt;div&gt;avvistamento&lt;/div&gt;" style="ellipse;whiteSpace=wrap;html=1;" parent="1" vertex="1">
          <mxGeometry x="200" y="180" width="80" height="40" as="geometry" />
        </mxCell>
        <mxCell id="6qO2nDXOa2ABBh6Tvv1o-9" value="" style="endArrow=classic;html=1;rounded=0;entryX=0;entryY=1;entryDx=0;entryDy=0;" parent="1" source="6qO2nDXOa2ABBh6Tvv1o-3" target="6qO2nDXOa2ABBh6Tvv1o-8" edge="1">
          <mxGeometry width="50" height="50" relative="1" as="geometry">
            <mxPoint x="290" y="290" as="sourcePoint" />
            <mxPoint x="340" y="240" as="targetPoint" />
          </mxGeometry>
        </mxCell>
        <mxCell id="6qO2nDXOa2ABBh6Tvv1o-10" value="database" style="rounded=0;whiteSpace=wrap;html=1;" parent="1" vertex="1">
          <mxGeometry x="170" y="130" width="120" height="30" as="geometry" />
        </mxCell>
        <mxCell id="6qO2nDXOa2ABBh6Tvv1o-11" value="&lt;div&gt;add&lt;/div&gt;&lt;div&gt;avvistamento&lt;/div&gt;" style="ellipse;whiteSpace=wrap;html=1;" parent="1" vertex="1">
          <mxGeometry x="360" y="170" width="90" height="50" as="geometry" />
        </mxCell>
        <mxCell id="6qO2nDXOa2ABBh6Tvv1o-14" value="&lt;div&gt;genera&lt;/div&gt;&lt;div&gt;codice&lt;/div&gt;&lt;div&gt;tessera&lt;/div&gt;" style="ellipse;whiteSpace=wrap;html=1;" parent="1" vertex="1">
          <mxGeometry x="220" y="270" width="60" height="60" as="geometry" />
        </mxCell>
        <mxCell id="6qO2nDXOa2ABBh6Tvv1o-16" style="edgeStyle=orthogonalEdgeStyle;rounded=0;orthogonalLoop=1;jettySize=auto;html=1;entryX=1;entryY=0.5;entryDx=0;entryDy=0;" parent="1" source="6qO2nDXOa2ABBh6Tvv1o-15" target="6qO2nDXOa2ABBh6Tvv1o-14" edge="1">
          <mxGeometry relative="1" as="geometry" />
        </mxCell>
        <mxCell id="6qO2nDXOa2ABBh6Tvv1o-15" value="iscrivi socio" style="ellipse;whiteSpace=wrap;html=1;" parent="1" vertex="1">
          <mxGeometry x="380" y="360" width="70" height="30" as="geometry" />
        </mxCell>
        <mxCell id="6qO2nDXOa2ABBh6Tvv1o-17" value="&lt;div&gt;add pattern&lt;/div&gt;&lt;div&gt;migratorio&lt;/div&gt;" style="ellipse;whiteSpace=wrap;html=1;" parent="1" vertex="1">
          <mxGeometry x="360" y="240" width="90" height="40" as="geometry" />
        </mxCell>
        <mxCell id="6qO2nDXOa2ABBh6Tvv1o-20" value="&lt;div&gt;assegnazione&lt;/div&gt;&lt;div&gt;badge&lt;/div&gt;" style="ellipse;whiteSpace=wrap;html=1;" parent="1" vertex="1">
          <mxGeometry x="360" y="300" width="90" height="40" as="geometry" />
        </mxCell>
        <mxCell id="6qO2nDXOa2ABBh6Tvv1o-22" value="responsabile" style="shape=umlActor;verticalLabelPosition=bottom;verticalAlign=top;html=1;outlineConnect=0;" parent="1" vertex="1">
          <mxGeometry x="540" y="255" width="30" height="60" as="geometry" />
        </mxCell>
        <mxCell id="6qO2nDXOa2ABBh6Tvv1o-29" value="" style="endArrow=classic;html=1;rounded=0;entryX=0.933;entryY=0.71;entryDx=0;entryDy=0;entryPerimeter=0;" parent="1" source="6qO2nDXOa2ABBh6Tvv1o-22" target="6qO2nDXOa2ABBh6Tvv1o-11" edge="1">
          <mxGeometry width="50" height="50" relative="1" as="geometry">
            <mxPoint x="330" y="290" as="sourcePoint" />
            <mxPoint x="540" y="180" as="targetPoint" />
          </mxGeometry>
        </mxCell>
        <mxCell id="6qO2nDXOa2ABBh6Tvv1o-30" value="" style="endArrow=classic;html=1;rounded=0;entryX=1;entryY=0.5;entryDx=0;entryDy=0;" parent="1" source="6qO2nDXOa2ABBh6Tvv1o-22" target="6qO2nDXOa2ABBh6Tvv1o-17" edge="1">
          <mxGeometry width="50" height="50" relative="1" as="geometry">
            <mxPoint x="586" y="304" as="sourcePoint" />
            <mxPoint x="490" y="240" as="targetPoint" />
          </mxGeometry>
        </mxCell>
        <mxCell id="6qO2nDXOa2ABBh6Tvv1o-31" value="" style="endArrow=classic;html=1;rounded=0;entryX=1;entryY=0.5;entryDx=0;entryDy=0;" parent="1" source="6qO2nDXOa2ABBh6Tvv1o-22" target="6qO2nDXOa2ABBh6Tvv1o-20" edge="1">
          <mxGeometry width="50" height="50" relative="1" as="geometry">
            <mxPoint x="596" y="344" as="sourcePoint" />
            <mxPoint x="500" y="280" as="targetPoint" />
          </mxGeometry>
        </mxCell>
        <mxCell id="6qO2nDXOa2ABBh6Tvv1o-32" value="" style="endArrow=classic;html=1;rounded=0;entryX=1;entryY=0.5;entryDx=0;entryDy=0;" parent="1" source="6qO2nDXOa2ABBh6Tvv1o-22" target="6qO2nDXOa2ABBh6Tvv1o-15" edge="1">
          <mxGeometry width="50" height="50" relative="1" as="geometry">
            <mxPoint x="646" y="394" as="sourcePoint" />
            <mxPoint x="550" y="330" as="targetPoint" />
          </mxGeometry>
        </mxCell>
        <mxCell id="6qO2nDXOa2ABBh6Tvv1o-35" value="include" style="text;html=1;align=center;verticalAlign=middle;whiteSpace=wrap;rounded=0;" parent="1" vertex="1">
          <mxGeometry x="280" y="310" width="60" height="30" as="geometry" />
        </mxCell>
      </root>
    </mxGraphModel>
  </diagram>
</mxfile>
